<?xml version="1.0" encoding="utf-8"?>
<!-- Generator: Adobe Illustrator 16.0.0, SVG Export Plug-In . SVG Version: 6.00 Build 0)  -->
<!DOCTYPE svg PUBLIC "-//W3C//DTD SVG 1.1//EN" "http://www.w3.org/Graphics/SVG/1.1/DTD/svg11.dtd">
<svg version="1.1" id="Layer_1" xmlns="http://www.w3.org/2000/svg" xmlns:xlink="http://www.w3.org/1999/xlink" x="0px" y="0px"
	 width="255.555px" height="35.694px" viewBox="0 0 255.555 35.694" enable-background="new 0 0 255.555 35.694"
	 xml:space="preserve">
<g>
	<g>
		<path fill="#FFFFFF" d="M36.774,13.6L35.5,13.558c-0.065,0.065-0.101,0.153-0.053,0.341c-0.418-0.047-0.382-0.188-0.269-0.354
			l-2.429-0.077c-0.084,0.275,0.139,0.557,0.598,0.432c-0.05,0.378-0.495,0.354-0.51,0.744c-0.127-0.025-0.082-0.242-0.245-0.242
			c-0.292,0.035-0.292,0.343,0,0.372c-0.025,0.234-0.401,0.084-0.375,0.374c-0.203-0.303-0.526-1.293-0.985-1.729l-1.133-0.037
			c0.013,0.042-0.005,0.104,0.013,0.144c-0.317,0.02-0.395,0.237-0.632,0V14.4c-0.266,0.057-0.317-0.092-0.489-0.124
			c-0.238,0.503-0.242,0.736-0.63,1.243c-1.065-0.143-1.332-1.07-1.482-2.125c0.036-0.06,0.127-0.088,0.209-0.124l-3.541-0.114
			l-0.709-1.947c-0.019,0.104-0.068,0.153-0.175,0.342c-0.147-0.038-0.076-0.133,0-0.133c-0.099-0.218-0.242-0.017-0.381,0
			c0.37,0.463,0.306,1.261-0.379,1.865c0.234,0.453,0.355-0.225,0.625-0.127c-0.385,0.586,0.299,0.863,0,1.37
			c0.06,0.185,0.16-0.057,0.37,0c-0.096,0.349,0.181,0.323,0.128,0.62c-0.489,0.115-0.232,0.218-0.25,0.752
			c-0.474-0.557-0.817-1.256-1.364-1.756c-0.29,0.05-0.231,0.441-0.626,0.384c0.239-0.218-0.059-0.359-0.123-0.628
			c-0.505-0.047-0.789,0.121-1.114,0.244c0.071,0.134,0.287,0.134,0.246,0.384c-0.444-0.188-0.575-0.664-1.12-0.748
			c0.381-0.466,0.098-1.382,0.751-1.113c0.016-0.483-0.33-0.593-0.751-0.63c-0.085-0.375,0.433-0.145,0.238-0.617
			c0.397,0.092,0.258,0.092,0.636,0c-0.131-0.146-0.107-0.255,0.131-0.249c-0.131-0.163-0.214-0.378-0.377-0.5
			c0.377-0.121,0.361,0.183,0.745-0.243c0.046,0.365,0.304,0.896,0.114,1.125c0.226,0.27,0.449,0.475,0.625,0.484
			c0.232-0.021,0.289-0.207,0.254-0.484c0.884,0.398,0.783-0.707,1.689-0.623l-0.064-0.189c-0.523,0.113-1.316-0.186-1.253-0.939
			c0.406-0.044,0.692,0.065,0.97,0.15l-1.385-3.816c-0.085-0.047-0.165-0.1-0.211-0.184c0.046-0.009,0.075-0.035,0.118-0.045
			L18.763,0l-0.369,1.01c0.079,0,0.134,0.027,0.154,0.089c0.362,0.628-0.476,0.854,0,0.997c-0.202,0.027-0.373-0.035-0.51-0.111
			l-0.597,1.637c0.436,0.061,0.972,0.246,0.988,0.844c-0.113,0.014-0.128-0.055-0.132-0.132c-0.137,0.036-0.063,0.132,0,0.132
			c-0.032,0.129-0.242,0.081-0.246,0.237c-0.397-0.013-0.537-0.304-0.849-0.42l-2.622,7.217c0.042,0.011,0.056,0.052,0.125,0.052
			c-0.026,0.082-0.104,0.091-0.161,0.075l-0.57,1.53l-2.43,0.078c0.678,0.595,0.603,1.946,1.54,2.285
			c-0.238,0.326-0.194,0.842,0.374,0.994c-0.335,0.182-0.566,0.474-0.994,0.246c0.009-0.145,0.224-0.101,0.37-0.133
			c-0.604-0.439-1.771-0.688-2.24-0.607c-0.692-0.451,0.103-1.145-0.862-1.377c0.095-0.101,0.771-0.42,0.623,0
			c0.342-0.173,0.16-0.391,0.239-0.982c0.353-0.047,0.554-0.237,0.774-0.414L0,13.623l11.027,8.615l-3.653,12.74
			c0,0.102,0.002,0.182,0,0.295c-0.042,0.007-0.053-0.01-0.089,0l-0.123,0.421l10.023-6.779c-0.446-0.075-0.849-0.248-0.971-0.697
			c0.471,0.051,1.015,0.166,1.547,0.304l1.001-0.668l0.675,0.47c0.564-0.237,1.021,0.482,1.724,0.732
			c-0.115,0.13-0.147,0.225-0.168,0.316l0.821,0.546c0.205,0.081,0.38,0.203,0.512,0.355l1.725,1.15c0.079-0.188,0.186-0.32,0.21,0
			c0.111-0.068,0.233-0.112,0.25-0.25c-0.031-0.177-0.31-0.111-0.486-0.115c0.082-0.389-0.216-0.385-0.133-0.758
			c0.647,0.16,1.157,0.189,1.859,0.255c-0.023,0.369-0.258,0.548-0.363,0.868c0.387,0.04,0.348,1.299,0.991,1.485
			c-0.115-0.798,0.991-0.671,1.37-0.122c-0.033,0.552-0.079,0.578-0.213,0.996l0.875,0.6c0.062-0.047,0.163-0.047,0.197-0.103
			c0.052,0.028,0.048,0.12,0.019,0.238l0.839,0.575c-0.013-0.128-0.076-0.204-0.234-0.193c0.247-0.167,0.585-0.248,0.632-0.62
			c0.051,0.019,0.071,0.055,0.109,0.075l-1.186-4.115c-0.067-0.009-0.147-0.009-0.296-0.063c0.129-0.03,0.2-0.092,0.245-0.134
			l-0.216-0.732c-0.003,0-0.014,0-0.028,0l0.025-0.04l-0.585-2.052c-0.038,0.025-0.062,0.048-0.062,0.094
			c-0.222-0.114-0.433-0.232-0.375-0.621c0.142-0.039,0.223-0.018,0.286,0.025l-0.915-3.223c-0.112-0.013-0.147-0.013-0.485-0.021
			c-0.118-0.329-0.357-0.753,0-0.882c0.143,0.033,0.06,0.134,0,0.134c0.067,0.233,0.18,0.137,0.254-0.005l-0.075-0.282
			c-0.057,0.016-0.096,0.033-0.18,0.042c-0.007-0.122-0.159-0.101-0.25-0.122c0.091-0.334,0.185-0.572-0.127-0.751
			c-0.377-0.013-0.302,0.448-0.743,0.368c-0.202-0.368-0.568-0.73-0.124-1.113c-0.302-0.893-1.243-0.59-1.493-1.24
			c-0.098,0.09-0.278,0.125-0.489,0.121c-0.192,0.004,0.046,0.659-0.258,0.875c0.024,0.131,0.228,0.102,0.392,0.118
			c0.054,0.272-0.254,0.182-0.264,0.371c0.4-0.051,0.13,0.519,0.62,1.118c0.229-0.254,0.385-0.111,0.492-0.25
			c0.293,0.296,0.441,0.734,0.751,1c-0.938-0.148-0.553,0.778-0.751,1.107c-0.76-0.299-1.45,0.297-1.983,0.623
			c-0.21-0.303-0.196-0.077-0.497-0.249c-0.218,0.021-0.067,0.43-0.246,0.496c-0.361-0.103-0.381-0.103-0.749,0
			c-0.103-0.42,0.187-0.475,0.123-0.87h0.495c-0.628-0.1-0.838-0.916-0.495-1.237c-0.029-0.254-0.545-0.029-0.625-0.254
			c-0.048-0.382,0.226-0.43,0.128-0.859c-0.228-0.187-0.375-0.45-0.863-0.38c-0.008-0.296-0.232-0.39,0-0.616
			c-0.969-0.023-0.626-0.675-1.248-1.114c0.171,0.146,0.206,0.044,0.373,0c-0.02-0.272-0.313-0.272-0.616-0.246
			c-0.114,0.081-0.194,0.214-0.251,0.367c-0.316,0.014-0.603,0.025-0.745-0.121c-0.144-0.805,0.448-0.885,0.623-1.362
			c0.235-0.127,0.413,0.368,0.493,0c0.183,0.368-0.151,0.478,0.496,0.495c-0.231,0.229-0.231,0.097-0.118,0.483
			c0.204,0.045,0.23-0.088,0.242-0.243c0.109,0.395,0.439,0.57,0.628,0.88c0.5-0.306,0.835,0.004,1.243-0.385
			c0.072-0.395-0.452-0.172-0.13-0.495c0.446-0.114,0.219,0.539,0.13,0.627c0.48,0.307,0.755-0.659,1.113-0.867
			c0.364,0.371,0.887-0.082,1.118,0.483c0.704-0.817-0.327-1.91,0.87-2.106c0.197,0.364-0.088,0.471,0.133,0.994
			c-0.308-0.014-0.608-0.014-0.622,0.251c0.247,0.36,0.632-0.18,0.739-0.381c0.167,0.13,0.242,0.349,0.5,0.381
			c-0.44,0.552,0.493,0.552,0.119,0.999c0.636-0.111,1.371-0.111,1.491-0.748c0.1-0.391-0.427-0.151-0.251-0.632
			c0.467,0.372,0.896,0,1.626,0c0.059-0.632-0.445,0-0.374-0.487c0.42,0.043,0.71-0.037,0.616-0.508
			c0.361,0.406,0.727-0.297,0.989,0c-0.286-0.7,0.662-1.141,0.752-1.854c0.106-0.179,0.094,0.699,0,0.99
			c0.245,0.051,0.391-0.015,0.385-0.238c0.541,0.179,0.032,0.65-0.266,0.729c0.342,0.736,1.245,1.98,2.24,1.251
			c0.049,0.077,0.049,0.162,0.008,0.266l0.997-0.78c-0.113-0.088-0.293-0.117-0.508-0.111c0.045-0.252-0.02-0.381-0.25-0.371
			c0.023-0.266,0.316-0.266,0.625-0.254c-0.107,0.265,0.411,0.482,0.368,0.254c0.076,0.03,0.076,0.148,0.116,0.212l3.425-2.678
			c-0.012-0.052-0.025-0.08-0.062-0.139C36.63,14.117,36.728,13.886,36.774,13.6z"/>
	</g>
	<g>
		<path fill="#FFFFFF" d="M255.555,13.6l-1.269-0.042c-0.065,0.065-0.106,0.153-0.065,0.341c-0.417-0.047-0.37-0.188-0.265-0.354
			l-2.433-0.076c-0.077,0.274,0.145,0.556,0.601,0.431c-0.048,0.378-0.494,0.354-0.508,0.744c-0.131-0.025-0.078-0.24-0.24-0.24
			c-0.295,0.033-0.295,0.341,0,0.37c-0.027,0.234-0.411,0.084-0.377,0.374c-0.199-0.303-0.536-1.293-0.995-1.729l-1.124-0.037
			c0.007,0.042-0.009,0.104,0.007,0.144c-0.314,0.02-0.397,0.237-0.625,0v0.878c-0.267,0.055-0.326-0.094-0.497-0.126
			c-0.231,0.503-0.239,0.736-0.623,1.243c-1.066-0.143-1.336-1.07-1.486-2.125c0.044-0.06,0.127-0.088,0.206-0.124l-3.537-0.114
			l-0.703-1.947c-0.015,0.104-0.084,0.153-0.181,0.342c-0.146-0.038-0.077-0.133,0-0.133c-0.103-0.218-0.232-0.016-0.386,0
			c0.369,0.463,0.309,1.261-0.372,1.865c0.23,0.453,0.349-0.225,0.634-0.127c-0.396,0.586,0.29,0.863,0,1.37
			c0.047,0.185,0.147-0.057,0.36,0c-0.099,0.349,0.177,0.323,0.126,0.62c-0.484,0.115-0.23,0.218-0.247,0.752
			c-0.479-0.557-0.818-1.256-1.367-1.756c-0.285,0.05-0.233,0.441-0.617,0.384c0.229-0.218-0.07-0.359-0.126-0.628
			c-0.507-0.047-0.794,0.121-1.123,0.244c0.074,0.134,0.288,0.134,0.252,0.384c-0.438-0.188-0.587-0.664-1.125-0.747
			c0.382-0.467,0.096-1.383,0.748-1.114c0.026-0.483-0.323-0.593-0.748-0.63c-0.085-0.375,0.426-0.145,0.242-0.617
			c0.398,0.092,0.253,0.092,0.631,0c-0.127-0.146-0.099-0.255,0.132-0.249c-0.132-0.163-0.218-0.378-0.379-0.5
			c0.385-0.121,0.364,0.183,0.747-0.243c0.049,0.365,0.309,0.896,0.119,1.125c0.23,0.27,0.448,0.475,0.63,0.484
			c0.226-0.021,0.28-0.207,0.245-0.484c0.888,0.398,0.778-0.707,1.694-0.623l-0.07-0.189c-0.521,0.113-1.314-0.186-1.252-0.939
			c0.406-0.044,0.696,0.065,0.972,0.15l-1.39-3.816c-0.089-0.047-0.157-0.1-0.199-0.184c0.042-0.009,0.069-0.035,0.11-0.045
			L237.545,0l-0.378,1.01c0.09,0,0.143,0.027,0.168,0.089c0.356,0.628-0.481,0.854,0,0.997c-0.217,0.027-0.373-0.035-0.514-0.111
			l-0.599,1.637c0.441,0.061,0.969,0.246,0.984,0.844c-0.114,0.014-0.129-0.055-0.129-0.132c-0.14,0.036-0.056,0.132,0,0.132
			c-0.032,0.129-0.243,0.081-0.254,0.237c-0.395-0.013-0.532-0.304-0.841-0.42l-2.618,7.217c0.035,0.011,0.062,0.052,0.12,0.052
			c-0.016,0.082-0.104,0.091-0.163,0.075l-0.568,1.53l-2.434,0.078c0.685,0.595,0.6,1.946,1.541,2.285
			c-0.232,0.326-0.19,0.842,0.373,0.994c-0.338,0.182-0.563,0.474-0.992,0.246c0.012-0.145,0.23-0.101,0.366-0.133
			c-0.604-0.439-1.765-0.688-2.237-0.607c-0.693-0.451,0.108-1.145-0.861-1.377c0.1-0.101,0.773-0.42,0.627,0
			c0.343-0.173,0.157-0.391,0.234-0.982c0.354-0.047,0.559-0.237,0.774-0.414l-11.368,0.377l11.029,8.615l-3.654,12.74
			c0,0.102,0,0.182,0,0.295c-0.047,0.007-0.064-0.01-0.092,0l-0.121,0.421l10.022-6.779c-0.447-0.075-0.849-0.248-0.969-0.697
			c0.473,0.051,1.015,0.166,1.553,0.304l0.999-0.668l0.679,0.47c0.562-0.237,1.009,0.482,1.724,0.732
			c-0.129,0.13-0.15,0.225-0.177,0.316l0.824,0.546c0.198,0.081,0.376,0.203,0.519,0.355l1.714,1.15c0.087-0.188,0.193-0.32,0.213,0
			c0.109-0.068,0.227-0.112,0.249-0.25c-0.026-0.177-0.3-0.111-0.481-0.115c0.082-0.389-0.221-0.385-0.128-0.758
			c0.644,0.16,1.146,0.189,1.855,0.255c-0.029,0.369-0.269,0.548-0.375,0.868c0.393,0.04,0.354,1.299,1.003,1.485
			c-0.109-0.798,0.98-0.671,1.362-0.122c-0.031,0.552-0.072,0.578-0.212,0.996l0.885,0.6c0.055-0.047,0.153-0.047,0.202-0.103
			c0.048,0.028,0.039,0.12,0.003,0.238l0.847,0.575c-0.023-0.128-0.068-0.204-0.229-0.193c0.24-0.167,0.57-0.248,0.629-0.62
			c0.041,0.019,0.066,0.055,0.101,0.075l-1.178-4.115c-0.076-0.009-0.158-0.009-0.3-0.063c0.127-0.03,0.2-0.092,0.238-0.134
			l-0.218-0.732c0,0-0.011,0-0.021,0l0.021-0.04l-0.579-2.051c-0.04,0.024-0.069,0.047-0.069,0.093
			c-0.222-0.114-0.433-0.232-0.364-0.621c0.135-0.039,0.213-0.018,0.278,0.025l-0.917-3.223c-0.107-0.013-0.146-0.013-0.479-0.021
			c-0.119-0.329-0.365-0.753,0-0.882c0.139,0.033,0.062,0.134,0,0.134c0.062,0.233,0.171,0.137,0.247-0.005l-0.076-0.282
			c-0.055,0.016-0.087,0.033-0.171,0.042c-0.021-0.122-0.167-0.101-0.249-0.122c0.082-0.334,0.184-0.572-0.134-0.751
			c-0.382-0.013-0.305,0.448-0.737,0.368c-0.21-0.368-0.571-0.73-0.129-1.113c-0.297-0.893-1.246-0.59-1.489-1.24
			c-0.101,0.09-0.284,0.125-0.488,0.121c-0.2,0.004,0.032,0.659-0.26,0.875c0.021,0.131,0.23,0.102,0.389,0.118
			c0.051,0.272-0.26,0.182-0.263,0.371c0.404-0.051,0.134,0.519,0.622,1.118c0.226-0.254,0.383-0.111,0.499-0.25
			c0.295,0.296,0.434,0.734,0.739,1c-0.941-0.148-0.552,0.779-0.739,1.107c-0.762-0.299-1.46,0.297-1.984,0.623
			c-0.229-0.303-0.202-0.077-0.498-0.249c-0.222,0.021-0.078,0.43-0.253,0.496c-0.37-0.103-0.389-0.103-0.743,0
			c-0.106-0.42,0.183-0.475,0.126-0.87h0.493c-0.629-0.1-0.847-0.916-0.493-1.237c-0.036-0.254-0.551-0.029-0.63-0.254
			c-0.059-0.382,0.23-0.43,0.121-0.859c-0.221-0.187-0.376-0.45-0.865-0.38c-0.002-0.296-0.226-0.39,0-0.616
			c-0.972-0.023-0.63-0.675-1.235-1.114c0.164,0.146,0.191,0.044,0.373,0c-0.025-0.271-0.313-0.271-0.632-0.246
			c-0.106,0.081-0.176,0.214-0.244,0.367c-0.309,0.014-0.597,0.025-0.739-0.121c-0.146-0.805,0.444-0.885,0.62-1.361
			c0.229-0.128,0.411,0.367,0.484,0c0.198,0.367-0.138,0.477,0.511,0.494c-0.242,0.229-0.242,0.097-0.128,0.483
			c0.208,0.045,0.233-0.088,0.242-0.243c0.111,0.396,0.442,0.57,0.626,0.88c0.503-0.306,0.838,0.004,1.251-0.385
			c0.066-0.395-0.455-0.172-0.13-0.495c0.444-0.114,0.213,0.539,0.13,0.627c0.474,0.307,0.752-0.659,1.115-0.867
			c0.358,0.371,0.877-0.082,1.114,0.483c0.706-0.817-0.33-1.91,0.869-2.106c0.201,0.364-0.085,0.471,0.125,0.994
			c-0.298-0.014-0.609-0.014-0.613,0.251c0.24,0.36,0.629-0.18,0.743-0.381c0.158,0.13,0.244,0.349,0.491,0.381
			c-0.443,0.552,0.492,0.552,0.118,0.999c0.646-0.111,1.382-0.111,1.491-0.748c0.105-0.391-0.425-0.151-0.245-0.632
			c0.461,0.372,0.891,0,1.618,0c0.06-0.632-0.445,0-0.371-0.487c0.42,0.043,0.712-0.037,0.618-0.508c0.355,0.406,0.73-0.297,1,0
			c-0.296-0.7,0.646-1.141,0.739-1.854c0.11-0.179,0.087,0.699,0,0.99c0.245,0.051,0.391-0.015,0.372-0.238
			c0.557,0.179,0.036,0.65-0.25,0.729c0.34,0.736,1.243,1.98,2.247,1.251c0.034,0.077,0.034,0.162,0,0.266l1.002-0.78
			c-0.118-0.088-0.289-0.117-0.512-0.111c0.047-0.252-0.021-0.381-0.254-0.371c0.023-0.266,0.318-0.266,0.631-0.254
			c-0.109,0.265,0.405,0.482,0.364,0.254c0.072,0.03,0.072,0.148,0.111,0.212l3.428-2.678c-0.016-0.052-0.031-0.08-0.057-0.139
			C255.409,14.117,255.504,13.886,255.555,13.6z"/>
	</g>
</g>
</svg>
