<?xml version="1.0" encoding="utf-8"?>
<!-- Generator: Adobe Illustrator 16.0.0, SVG Export Plug-In . SVG Version: 6.00 Build 0)  -->
<!DOCTYPE svg PUBLIC "-//W3C//DTD SVG 1.1//EN" "http://www.w3.org/Graphics/SVG/1.1/DTD/svg11.dtd">
<svg version="1.1" id="Layer_1" xmlns="http://www.w3.org/2000/svg" xmlns:xlink="http://www.w3.org/1999/xlink" x="0px" y="0px"
	 width="399.934px" height="87.134px" viewBox="0 0 399.934 87.134" enable-background="new 0 0 399.934 87.134"
	 xml:space="preserve">
<g id="XMLID_6_">
	<g>
		<path fill="#FFFFFF" d="M398.468,40.681l1.466,2.916l-13.59,26.958c-0.444,0.118-0.918,0.207-0.978,0.695
			c0.237-0.029,0.43,0,0.593,0.06l-2.413,4.796c-0.104-0.104-0.207-0.236-0.399-0.414c-0.622,0.71-1.525,1.125-2.665,1.317
			c-0.06-0.814-0.296-1.48-0.888-1.762c0,0.74,0,1.48,0,2.221c-1.303,0.311-1.91,1.347-2.665,2.221h-1.776
			c-0.015,0.385-0.252,0.547-0.548,0.636c-0.163,0.06-0.37,0.089-0.548,0.104l0.592-1.185c0.933,0.015,1.511-0.312,1.392-1.332
			c-0.251,0.059-0.532,0.104-0.784,0.162l0.296-0.606h0.488c0.03-0.607,0.104-1.052,0.223-1.406l0.207-0.415
			c0.267-0.281,0.666-0.296,1.347,0.045c-0.029-1.11-0.311-1.214-0.799-1.11l1.909-3.79c0.489-0.015,1.052,0.015,1.11-0.429
			c-0.311,0.044-0.666,0.015-0.933,0.088l0.622-1.272c0.222-0.178,0.341-0.415,0.311-0.607l12.598-24.974L373.953,6.514h-49.399
			V3.331c0.341-0.104,0.873-0.015,0.888-0.444V0h50.229c0.312,0.06,0.622,0.148,0.933,0.193c1.155,1.954,2.694,3.73,4.249,5.507
			l17.395,34.551c-0.355,0.341-0.489,0.74-0.015,0.814C398.246,40.873,398.35,40.77,398.468,40.681z M392.458,53.042
			c-0.489,2.102,1.702,2.072,2.22,0.888C393.834,53.752,393.879,52.672,392.458,53.042z M390.237,62.368
			c0-0.444-0.771-0.563-0.874,0C389.452,62.9,389.853,62.649,390.237,62.368z M388.031,59.259c0.118,0.119,0.666-0.207,0.444-0.443
			C388.342,58.696,387.795,59.037,388.031,59.259z M386.255,68.142c1.54,0.044,2.901-2.384,1.776-3.553
			c0.311,1.198-0.933,0.858-1.332,1.332C386.832,66.957,386.625,67.623,386.255,68.142z M387.144,21.969
			c0.118,0.134,0.666-0.207,0.443-0.429C387.469,21.406,386.906,21.747,387.144,21.969z M384.034,71.25
			c0.118,0.118,0.666-0.222,0.444-0.444C384.36,70.688,383.798,71.028,384.034,71.25z M381.813,69.918
			c0.119,0.118,0.682-0.223,0.444-0.444C382.125,69.355,381.577,69.695,381.813,69.918z M381.813,75.691
			c0.119,0.118,0.682-0.223,0.444-0.444C382.125,75.113,381.577,75.454,381.813,75.691z M380.926,70.806
			c0.518-0.074,1.258,0.074,1.332-0.443C381.74,70.436,381,70.288,380.926,70.806z M355.611,4.22
			c0.134,0.118,0.682-0.207,0.459-0.444C355.938,3.657,355.39,3.997,355.611,4.22z M353.85,5.996c-0.015-0.444-0.784-0.563-0.888,0
			C353.051,6.529,353.45,6.277,353.85,5.996z"/>
		<path fill="#FFFFFF" d="M381.844,79.466l-0.814,1.599c0-0.267,0.296-0.606,0.341-0.933c-0.192-0.399-0.386-0.799-0.889-0.888
			C380.733,78.682,381.207,79.11,381.844,79.466z"/>
		<path fill="#FFFFFF" d="M380.926,79.688c0.414,1.599-1.747,0.606-2.665,0.888c0.237-0.37,0.459-0.726,0.444-1.332
			C379.756,79.896,379.534,80.177,380.926,79.688z"/>
		<path fill="#FFFFFF" d="M379.875,83.359l-1.17,2.354c-0.029-0.799,0.355-2.013-0.889-1.584c-0.222,0.8,0.992,2.161-1.776,1.333
			c0.134,0.695,0.06,1.214-0.073,1.672h-2.99c0.162-0.532,0.695-0.695,0.399-1.672h-1.332c0.162,0.532,0.222,1.184,0.458,1.672
			h-6.987c1.052-0.443,1.658-2.339,1.214-2.575c-0.015,0.592-1.243,0.577-1.332,0v-0.874c0.533,0.134,2.724-0.073,1.332-0.443
			c-0.784-0.045-1.391,0.089-1.791,0.443c-0.888,0.889,0.207,0.859,0.459,1.777c-0.991,0.118-1.007,1.08-0.518,1.672h-7.521
			c-0.045-0.354-0.148-0.77-0.237-1.109c-0.073-0.223-0.133-0.43-0.178-0.563c1.658,0.147,0.237-2.961,1.792-1.777
			c0.015-1.776,0.681-2.383,0.71-3.063h14.078c-0.133,0.133-0.104,0.354,0.297,0.844c0.281-0.312,0.606-0.578,1.006-0.785
			c0.474-0.267,1.037-0.444,1.658-0.548c0.533,0.651,1.673,0.682,2.221,1.333c-0.459,0.429-0.903,0.873-1.332,1.332
			c0.34,0.089,0.518,0.37,0.443,0.888C378.513,83.907,379.431,82.723,379.875,83.359z M375.597,84.559
			c0.325-1.362-0.771-1.303-0.444-2.65c-0.519,0.06-1.259-0.073-1.332,0.444c0.34,0.089,0.518,0.37,0.443,0.889
			c-0.044,0.829-1.465,0.296-1.332,1.317C374.472,84.929,374.812,83.744,375.597,84.559z M371.155,84.129
			c0.118,0.119,0.681-0.222,0.444-0.444C371.48,83.552,370.918,83.893,371.155,84.129z M371.155,85.891
			C372.518,87.104,369.941,84.544,371.155,85.891L371.155,85.891z M370.711,83.685c0.134-0.873-0.606-0.888-0.888-1.332
			c0.443-0.015,0.563-0.784,0-0.888C369.142,82.101,369.394,83.773,370.711,83.685z M368.49,84.129c0-0.459-0.77-0.563-0.888,0
			C367.706,84.662,368.105,84.396,368.49,84.129z M365.396,81.465c0.341-0.104,0.858-0.016,0.889-0.444
			C365.93,81.124,365.396,81.021,365.396,81.465z"/>
		<path fill="#FFFFFF" d="M380.037,81.465c-0.015,0.429-0.548,0.34-0.888,0.443C379.164,81.465,379.682,81.554,380.037,81.465z"/>
		<path fill="#FFFFFF" d="M357.166,80.621c0.207,0.443,0.429,0.873,0.236,1.731c-1.539-0.325-1.599,1.555-0.888,2.206
			c-1.791-0.06-0.399,1.051-0.06,1.643c0.03,0.06,0.045,0.104,0.06,0.148c-0.488,0.029-0.962,0.045-1.348-0.029
			c-0.606-0.119-1.006-0.459-0.873-1.303c1.243-0.682,0.8-3.05,2.221-3.553c-0.355-0.104-0.873-0.016-0.903-0.444
			c0.399-0.104,0.593-0.237,0.711-0.399H357.166z"/>
		<path fill="#FFFFFF" d="M355.02,87.03c0.044,0.03,0.074,0.06,0.089,0.104h-0.577C354.738,87.046,354.901,86.957,355.02,87.03z"/>
		<path fill="#FFFFFF" d="M353.924,80.621c0.355,2.22-1.051,5.033-0.118,6.513h-19.97c-0.06-0.177-0.267-0.281-0.37,0h-41.303
			c-1.006-0.147-1.835-0.474-2.679-0.784v-1.332c0.34-0.312,0.977-2.487,0-2.665v-1.731h2.561c0.918,0.695,2.087,1.095,3.494,0.873
			c2.102-0.355,4.056-0.637,6.01-0.873h13.323c3.553,0.192,7.12,0.281,10.688,0.296c0.637,0,1.169-0.104,1.643-0.296h3.73
			c1.406,0.77,3.153-0.312,4.708,0.844c-0.074-0.963,1.584-0.208,2.221-0.444c-0.489,0.637-0.474,1.08,0.443,1.332
			c0.267-0.888,0.341-1.214,0.252-1.731h0.8c-0.118,0.207-0.192,0.474-0.163,0.844c1.421-0.385,1.377,0.695,2.221,0.888
			c-0.015-0.621,0.207-0.977,0.444-1.332c-0.637-0.074-1.54,0.118-1.732-0.399h2.398c-0.134,0.222-0.252,0.459-0.223,0.844
			c0.963,0.251,1.052-0.355,1.273-0.844h2.694c-0.533,0.74-0.029,0.34,0.281,0h2.087c0.119,0.563,0.326,1.036,0.771,1.287
			c-0.089-0.34,0-0.844,0.029-1.287h1.925c0.178,0.044,0.325,0.118,0.266,0.399c0.03,0.267,0.06,0.518,0.43,0.444
			c0.37-0.178,0.533-0.548,0.77-0.844H353.924z M346.3,81.908c0.312-0.251-2.605-1.45-0.888-0.443
			C345.501,81.509,345.841,82.278,346.3,81.908z M344.079,81.465c0.119,0.118,0.682-0.223,0.444-0.444
			C344.405,80.887,343.843,81.228,344.079,81.465z M332.977,81.908c0.134,0.119,0.682-0.222,0.444-0.443
			C333.303,81.331,332.755,81.672,332.977,81.908z M328.995,81.021h-2.68c-0.06,2.161,1.569,0.548,2.235,1.332
			C328.521,81.731,328.743,81.376,328.995,81.021z M295.701,86.779c0-0.237-0.37-0.489-0.459,0
			C295.242,87.03,295.598,87.282,295.701,86.779z M294.799,85.462c-0.489,0.029-0.682-0.651-0.874,0
			C293.925,85.905,294.695,86.009,294.799,85.462z"/>
		<path fill="#FFFFFF" d="M325.441,0v2.887c-0.354,0.104-0.888,0.016-0.888,0.444v3.183h-47.356
			c-0.577-0.325-1.259-0.532-2.072-0.548c-4.96-0.044-9.697-0.296-14.39,0.548h-73.337c0-0.029,0.015-0.044-0.015-0.073
			c-0.059-0.06-0.207-0.016-0.326,0.073h-5.211c0.311-0.37,0.355-0.858-0.237-0.962c-0.074,0.474-0.444,0.666-0.696,0.962h-64.707
			V3.997c0.074,0,0.133-0.073,0.208-0.281c0-0.236-0.222-0.385-0.444-0.385l-0.148-3.064c1.599-0.073,3.183-0.147,4.782-0.267
			H325.441z M307.678,4.22c0.118,0.118,0.681-0.207,0.444-0.444C308.003,3.657,307.455,3.997,307.678,4.22z M304.125,5.996
			c0.133,0.118,0.681-0.207,0.443-0.444C304.45,5.419,303.902,5.759,304.125,5.996z M285.916,0.667
			c0.134,0.118,0.682-0.208,0.459-0.444C286.257,0.104,285.694,0.43,285.916,0.667z"/>
		<path fill="#FFFFFF" d="M289.484,82.353c0.474,1.125-1.348,2.103,0,2.665v1.332c-0.104,0.326-0.074,0.577,0.015,0.784h-2.354
			c-0.104-0.118-0.177-0.281-0.34-0.354c-0.015,0.133,0,0.236,0,0.354h-1.644c0.178-0.044,0.312-0.133,0.326-0.354
			c-0.312,0.089-0.755,0.059-0.859,0.354h-0.933c-0.044-0.503-0.162-0.947-0.873-0.784c0.029,0.237,0.015,0.533,0.045,0.784h-33.294
			c-0.563-0.385-1.243-0.666-2.058-0.739c-7.461-0.74-14.907,0.977-22.354,0c-1.229-0.163-2.161,0.162-2.827,0.739H160.9
			c-0.104-0.029-0.178-0.073-0.281-0.118c-3.805-1.065-7.55-0.947-11.354-0.563l-0.355-3.257c0.178,0,0.548-0.267,0.355-0.474
			c-0.015-0.015-0.044-0.029-0.074-0.029v-2.072h131.9c0.073,0.029,0.147,0.015,0.236,0h2.546c0.682,0.281,1.406,0.518,2.043,0.844
			c0.134-0.267,0.208-0.548,0.281-0.844h3.287V82.353z M287.249,83.241c0.354-0.104,0.888-0.015,0.902-0.444
			C287.812,82.886,287.264,82.797,287.249,83.241z M285.043,81.908c1.258,0.622-0.444-0.799-0.889-0.443
			C283.784,81.746,284.969,81.864,285.043,81.908z M283.711,84.129c0.118,0.119,0.666-0.222,0.443-0.444
			C284.036,83.552,283.474,83.893,283.711,84.129z M282.378,84.129c0.341-0.104,0.874-0.015,0.889-0.444
			C282.911,83.773,282.394,83.685,282.378,84.129z M279.27,82.797c-0.711-1.747,1.909-0.163,1.776-1.332
			c-1.362,0.311-1.303-0.771-2.665-0.444c-0.133,0.903-1.198,0.858-1.317,1.776c0.578-0.074,1.333,1.806,1.762,0.444
			c-0.548-0.06-1.051-0.148-0.888-0.889C278.515,82.367,278.559,82.915,279.27,82.797z M277.063,86.35
			c0.326-0.104,0.859-0.015,0.874-0.459C277.597,85.994,277.063,85.905,277.063,86.35z M272.164,85.018
			c0.251,0.296,1.436-2.605,0.459-0.889C272.563,84.203,271.794,84.544,272.164,85.018z"/>
		<path fill="#FFFFFF" d="M148.909,83.196l0.355,3.257c-1.347,0.134-2.694,0.281-4.056,0.444c-5.877,0.681-11.65-0.74-17.557,0.118
			c-0.163,0.03-0.296,0.089-0.444,0.118h-7.224c0-0.133,0.03-0.236-0.015-0.414c-0.385-0.104-0.725,0.104-0.977,0.414H28.527v-1.746
			c0.34-0.089,0.858-0.015,0.873-0.43l0.252-0.548c0.133,0.119,0.326,0.163,0.636,0.089v-0.888c-0.429,0-0.518-0.355-0.888-0.444
			v-2.546h21.154c0.918,1.021,2.324,1.539,4.056,0.977c1.273-0.414,2.546-0.711,3.819-0.977h22.368
			c7.935,0.858,15.884,1.791,23.79,0.266c0.326-0.059,0.622-0.147,0.903-0.266h43.7v2.072c-0.192,0-0.577,0.281-0.37,0.474
			C148.835,83.182,148.865,83.196,148.909,83.196z"/>
		<path fill="#FFFFFF" d="M116.208,3.997v2.517H73.87c-0.281-0.059-0.563-0.059-0.814,0h-5.314c0.074-0.222,0.148-0.429,0.296-0.577
			c-0.859-0.37-0.874,0.089-0.874,0.577H56.58c-0.518-0.755-1.007-1.628-1.88-0.577c0.622,0.178,0.755,0.341,0.74,0.577h-3.02
			c-0.296-1.006-1.688-2.294-0.37-3.241c1.777-0.178,1.969,0.828,2.65-0.444c0.548,0.533,1.792,2.605,2.665,1.332
			c-2.546-0.341-0.208-1.08,0.444-1.776c-1.465-1.51-2.472,0.385-4.87-0.444c-0.726-0.325,0.104-2.176-1.333-1.776
			C51.65,0.104,51.68,0.045,51.724,0h2.147c-0.119,0.578-0.163,1.096-0.06,1.496c0.104-0.533,0.503-0.267,0.888,0
			C55.514,1.066,54.877,0.37,54.848,0h0.429c0.222,0.37,0.636,0.667,0.77,0.163C56.002,0.134,55.973,0.045,55.943,0h1.525
			c0.222,1.865,1.169,3.006,2.117,4.16c0.578-0.592,0.578-1.644,0-2.221c0.962-0.37,1.54-1.125,2.043-1.939h1.969
			c0,0.208-0.044,0.355-0.015,0.607c-1.081-0.695-1.303,1.51-0.444,1.332c0.4-0.651,0.355-1.717,1.777-1.332
			C64.884,0.341,64.929,0.163,64.988,0h1.984c0.651,0.637,1.717,0.874,2.383,1.496C69.592,0.8,69.251,0.312,68.763,0h31.473
			c5.196,0.312,10.392,0.43,15.588,0.267l0.148,3.064c-0.192,0-0.399,0.118-0.444,0.385C115.853,3.687,116.06,3.997,116.208,3.997z
			 M72.908,2.828c0.34-1.021,0.622-1.718-0.444-2.665C71.857,0.726,71.694,2.828,72.908,2.828z M72.464,5.937
			c0.118,0.118,0.681-0.222,0.444-0.444C72.774,5.374,72.242,5.7,72.464,5.937z M68.467,1.939c-0.592,0.06-1.347-1.806-1.776-0.443
			C66.972,1.732,68.038,3.302,68.467,1.939z"/>
		<path fill="#FFFFFF" d="M59.584,0h0.222c-0.059,0.06-0.119,0.134-0.222,0.163C59.6,0.089,59.57,0.06,59.584,0z"/>
		<path fill="#FFFFFF" d="M51.635,6.514H25.966L20.37,17.617c-0.903-0.119-1.88,0.118-2.828-0.119
			c-0.34-0.089-0.681-0.236-1.007-0.474c0.074,0.962-1.584,0.207-2.22,0.444c0.488-0.622,0.474-1.081-0.444-1.332l-0.044-0.016
			l3.819-7.564c0.311-0.044,0.651-0.059,0.651-0.399c-0.148,0.044-0.326,0.044-0.503,0.089l2.68-5.329
			C22.087,1.703,23.76,0.459,25.655,0h25.092c0.207,0.104,0.458,0.178,0.858,0.163c-1.184,1.14,0.858,0.637,0.888,1.776
			c-2.62,0-0.918,1.688-1.776,3.109C51.665,4.9,51.413,5.937,51.635,6.514z M24.515,7.269c0.355-0.104,0.888-0.015,0.888-0.458
			C25.063,6.914,24.53,6.84,24.515,7.269z M21.865,10.822c0.118,0.118,0.666-0.223,0.444-0.444
			C22.176,10.244,21.628,10.585,21.865,10.822z M22.309,7.713c0-0.251-0.37-0.503-0.444,0C21.865,7.95,22.22,8.217,22.309,7.713z
			 M21.421,5.492c0.34-0.104,0.874-0.015,0.888-0.443C21.954,5.152,21.421,5.063,21.421,5.492z M18.756,17.024
			c0.119,0.134,0.666-0.207,0.444-0.444C19.067,16.462,18.52,16.803,18.756,17.024z M17.868,10.378
			c1.421,0.385,1.392-0.681,1.776-1.332C18.786,9.223,17.735,9.208,17.868,10.378z M18.297,11.266c0,0.252,0.37,0.504,0.459,0
			C18.756,11.015,18.386,10.748,18.297,11.266z"/>
		<path fill="#FFFFFF" d="M29.652,84.41L29.4,84.958c-0.34,0.089-0.873,0-0.873,0.43v1.746h-6.573L0,43.597l4.101-8.171
			c1.125-0.237,2.65-0.519,3.109-1.97c-1.791-0.606-1.569,0.8-2.221,1.333c-0.148-0.148-0.281-0.223-0.414-0.296l1.214-2.398
			c0.029,0,0.044,0.029,0.089,0.029c0.074-0.518,0.695-0.488,1.332-0.444c-0.474-2.102,1.14-2.116,1.776-3.108
			c0.252-1.036-0.326-1.258-0.459-1.909l0.474-0.948c0.681-0.281,1.362-0.577,2.206-0.695c0.251,0.385,2.398,1.406,1.333,0.444
			c-0.282-0.015-0.533-0.06-0.444-0.444c1.599-0.726,2.605-3.035,2.665-3.997c0.592,0.015,0.4,0.784,0.888,0.889
			c0.385-1.288,0.651-0.489,1.776-0.43c0.341-0.192,0.637-0.399,0.918-0.651c0.281-0.237,0.533-0.503,0.799-0.77L7.298,43.597
			l18.652,37.024H29.4v2.546C29.43,83.641,29.385,84.174,29.652,84.41z M24.959,82.723c0-0.236-0.355-0.503-0.444,0
			C24.515,82.975,24.885,83.241,24.959,82.723z M22.309,80.946c0.104,0.134,0.667-0.207,0.444-0.43
			C22.62,80.384,22.072,80.725,22.309,80.946z M13.871,29.016v-0.889h-1.332v0.889H13.871z M9.43,35.677
			c1.169,0.134,1.451-0.621,1.332-1.776C9.327,33.501,10.141,35.352,9.43,35.677z M10.318,27.239
			c0.34-0.089,0.874-0.015,0.888-0.444C10.866,26.898,10.333,26.81,10.318,27.239z M9.874,33.013
			c0.133,0.118,0.667-0.208,0.444-0.444C10.2,32.45,9.637,32.79,9.874,33.013z M6.766,37.01c-1.569-0.533-1.466-0.651-2.665-0.889
			c0.044,0.962-1.214,2.872-0.444,3.108C4.071,37.868,6.114,38.135,6.766,37.01z"/>
		<path fill="#FFFFFF" d="M18.297,19.704c-0.548,0.178-0.77,0.044-0.858-0.237c-0.119-0.399,0.044-1.08-0.015-1.539
			C18.016,18.209,18.253,18.875,18.297,19.704z"/>
		<path fill="#FFFFFF" d="M16.876,19.526c0.074,0.163,0.104,0.399,0.104,0.607c-0.074,0.222-0.148,0.296-0.208,0.296
			c-0.148,0-0.251-0.415-0.237-0.726C16.654,19.319,16.788,19.349,16.876,19.526z"/>
		<path fill="#FFFFFF" d="M16.077,18.372c0.281,1.731-2.428,0.503-3.538,0.873c-0.06-0.06-0.133-0.104-0.208-0.163l1.495-2.961
			l0.044,0.016c-0.399,1.303-0.399,1.376,0,2.679C14.907,19.186,15.781,17.262,16.077,18.372z"/>
		<path fill="#FFFFFF" d="M13.427,21.48c0.074-0.519,0.444-0.252,0.444,0C13.782,21.969,13.412,21.718,13.427,21.48z"/>
		<path fill="#FFFFFF" d="M10.274,23.183c0.015,0.015,0.03,0.045,0.044,0.06c-0.03,0-0.044,0.015-0.074,0L10.274,23.183z"/>
	</g>
	<g>
	</g>
</g>
<path fill="#FFFFFF" d="M336.223,35.158l-0.048-0.165c0,0.027-0.023,0.027-0.023,0.044
	C336.136,35.148,336.175,35.167,336.223,35.158z"/>
<path fill="#21242B" d="M335.89,44.621c-0.352,0.057-0.035-0.567-0.447-0.461c0.188-0.494,0.13,0.116,0.567,0
	C336.028,44.366,335.879,44.409,335.89,44.621z"/>
<g>
	<path fill="#FFFFFF" d="M49.47,40.939l-0.927-0.03c-0.048,0.047-0.073,0.111-0.039,0.248c-0.304-0.036-0.277-0.137-0.195-0.258
		l-1.768-0.057c-0.061,0.202,0.102,0.405,0.436,0.314c-0.037,0.274-0.36,0.258-0.372,0.542c-0.092-0.019-0.059-0.176-0.177-0.176
		c-0.213,0.025-0.213,0.248,0,0.27c-0.019,0.172-0.292,0.062-0.273,0.272c-0.148-0.22-0.384-0.941-0.718-1.259l-0.824-0.025
		c0.009,0.03-0.004,0.075,0.009,0.104c-0.231,0.015-0.288,0.173-0.459,0v0.639c-0.194,0.04-0.231-0.067-0.355-0.092
		c-0.173,0.367-0.176,0.536-0.459,0.905c-0.776-0.104-0.969-0.78-1.079-1.546c0.026-0.044,0.093-0.064,0.152-0.091l-2.576-0.084
		l-0.517-1.417c-0.014,0.075-0.049,0.111-0.127,0.249c-0.106-0.027-0.055-0.096,0-0.096c-0.072-0.158-0.176-0.013-0.278,0
		c0.27,0.338,0.223,0.917-0.276,1.355c0.17,0.33,0.259-0.162,0.455-0.092c-0.279,0.429,0.217,0.63,0,0.998
		c0.044,0.134,0.116-0.04,0.27,0c-0.07,0.254,0.131,0.235,0.092,0.451c-0.355,0.083-0.167,0.158-0.183,0.548
		c-0.345-0.406-0.594-0.914-0.991-1.277c-0.212,0.036-0.168,0.321-0.456,0.278c0.174-0.158-0.043-0.263-0.09-0.457
		c-0.366-0.036-0.573,0.089-0.81,0.179c0.051,0.096,0.208,0.096,0.179,0.278c-0.324-0.136-0.419-0.483-0.816-0.544
		c0.278-0.341,0.071-1.007,0.547-0.811c0.011-0.353-0.24-0.431-0.547-0.46c-0.062-0.272,0.315-0.104,0.174-0.447
		c0.289,0.066,0.188,0.066,0.462,0c-0.096-0.108-0.079-0.187,0.095-0.182c-0.095-0.118-0.155-0.275-0.274-0.365
		c0.274-0.088,0.263,0.135,0.541-0.176c0.033,0.266,0.222,0.653,0.083,0.818c0.165,0.196,0.327,0.345,0.455,0.352
		c0.169-0.013,0.209-0.149,0.185-0.352c0.643,0.291,0.569-0.515,1.229-0.453l-0.046-0.139c-0.379,0.084-0.958-0.134-0.912-0.683
		c0.295-0.032,0.502,0.049,0.706,0.108l-1.007-2.776c-0.063-0.035-0.121-0.072-0.154-0.136c0.033-0.004,0.055-0.023,0.085-0.03
		l-1.555-4.297l-0.269,0.733c0.058,0,0.098,0.021,0.113,0.066c0.264,0.456-0.347,0.621,0,0.726c-0.147,0.02-0.272-0.025-0.372-0.082
		l-0.434,1.19c0.316,0.045,0.707,0.181,0.719,0.614c-0.083,0.012-0.093-0.039-0.095-0.095c-0.1,0.027-0.047,0.095,0,0.095
		c-0.024,0.094-0.177,0.06-0.18,0.174c-0.289-0.011-0.392-0.222-0.617-0.305l-1.908,5.251c0.03,0.008,0.041,0.037,0.092,0.037
		c-0.02,0.06-0.076,0.066-0.118,0.055l-0.416,1.113l-1.767,0.058c0.493,0.434,0.438,1.416,1.12,1.663
		c-0.173,0.237-0.141,0.613,0.271,0.723c-0.244,0.134-0.411,0.345-0.722,0.18c0.005-0.105,0.162-0.075,0.268-0.096
		c-0.439-0.321-1.289-0.502-1.63-0.443c-0.503-0.327,0.075-0.832-0.628-1.001c0.07-0.073,0.561-0.306,0.455,0
		c0.249-0.125,0.116-0.284,0.173-0.717c0.256-0.034,0.403-0.171,0.563-0.3l-8.274,0.273l8.025,6.271l-2.658,9.271
		c0,0.074,0.001,0.133,0,0.215c-0.031,0.005-0.039-0.007-0.065,0l-0.09,0.308l7.294-4.935c-0.324-0.055-0.618-0.18-0.707-0.508
		c0.343,0.036,0.739,0.122,1.126,0.221l0.729-0.485l0.491,0.342c0.411-0.173,0.743,0.351,1.256,0.534
		c-0.084,0.093-0.107,0.162-0.123,0.23l0.597,0.396c0.149,0.059,0.277,0.147,0.373,0.258l1.254,0.837
		c0.058-0.137,0.136-0.231,0.153,0c0.082-0.048,0.17-0.081,0.183-0.183c-0.023-0.128-0.225-0.08-0.354-0.083
		c0.059-0.281-0.158-0.28-0.097-0.55c0.472,0.114,0.841,0.136,1.353,0.185c-0.017,0.269-0.188,0.399-0.264,0.631
		c0.282,0.029,0.252,0.945,0.721,1.082c-0.083-0.581,0.72-0.487,0.998-0.088c-0.024,0.399-0.058,0.42-0.156,0.724l0.638,0.437
		c0.044-0.034,0.119-0.034,0.144-0.075c0.037,0.021,0.035,0.086,0.013,0.174l0.611,0.418c-0.008-0.093-0.055-0.148-0.17-0.141
		c0.179-0.121,0.424-0.18,0.459-0.451c0.038,0.013,0.052,0.039,0.08,0.054l-0.863-2.994c-0.049-0.006-0.108-0.006-0.215-0.047
		c0.094-0.021,0.146-0.064,0.177-0.096l-0.157-0.534c-0.001,0-0.01,0-0.02,0l0.019-0.028l-0.427-1.491
		c-0.027,0.017-0.044,0.034-0.044,0.065c-0.162-0.083-0.316-0.169-0.274-0.451c0.103-0.028,0.162-0.014,0.208,0.02l-0.667-2.348
		c-0.081-0.007-0.107-0.007-0.353-0.015c-0.085-0.239-0.26-0.548,0-0.641c0.104,0.023,0.043,0.097,0,0.097
		c0.049,0.169,0.13,0.1,0.185-0.004l-0.054-0.205c-0.041,0.011-0.07,0.024-0.13,0.03c-0.005-0.089-0.115-0.072-0.182-0.089
		c0.067-0.243,0.135-0.416-0.092-0.547c-0.275-0.008-0.22,0.327-0.541,0.27c-0.146-0.27-0.414-0.532-0.09-0.811
		c-0.22-0.649-0.905-0.431-1.087-0.902c-0.071,0.064-0.203,0.091-0.355,0.087c-0.141,0.004,0.032,0.479-0.188,0.637
		c0.017,0.095,0.166,0.074,0.284,0.085c0.039,0.2-0.185,0.134-0.192,0.272c0.292-0.037,0.096,0.377,0.451,0.814
		c0.166-0.186,0.28-0.083,0.359-0.183c0.213,0.213,0.321,0.533,0.545,0.728c-0.682-0.109-0.402,0.566-0.545,0.805
		c-0.553-0.217-1.056,0.217-1.443,0.455c-0.153-0.221-0.143-0.059-0.362-0.183c-0.159,0.017-0.048,0.313-0.179,0.361
		c-0.263-0.074-0.278-0.074-0.546,0c-0.075-0.307,0.136-0.345,0.09-0.634h0.359c-0.457-0.071-0.61-0.666-0.359-0.9
		c-0.021-0.184-0.397-0.02-0.455-0.184c-0.035-0.279,0.165-0.313,0.094-0.626c-0.166-0.136-0.273-0.329-0.629-0.276
		c-0.006-0.215-0.169-0.283,0-0.45c-0.706-0.015-0.455-0.489-0.908-0.809c0.125,0.106,0.149,0.031,0.272,0
		c-0.015-0.198-0.229-0.198-0.448-0.18c-0.083,0.06-0.142,0.155-0.184,0.267c-0.23,0.012-0.438,0.02-0.542-0.087
		c-0.104-0.587,0.327-0.645,0.454-0.992c0.171-0.093,0.301,0.268,0.358,0c0.133,0.268-0.109,0.348,0.362,0.36
		c-0.169,0.167-0.169,0.07-0.086,0.352c0.148,0.033,0.168-0.063,0.176-0.177c0.079,0.288,0.32,0.415,0.458,0.641
		c0.364-0.223,0.605,0.003,0.904-0.281c0.051-0.285-0.33-0.123-0.095-0.359c0.325-0.082,0.159,0.392,0.095,0.457
		c0.349,0.222,0.549-0.48,0.809-0.632c0.265,0.271,0.645-0.059,0.813,0.352c0.514-0.595-0.237-1.39,0.634-1.533
		c0.143,0.265-0.063,0.344,0.096,0.726c-0.223-0.012-0.442-0.012-0.452,0.182c0.179,0.262,0.459-0.131,0.538-0.278
		c0.122,0.097,0.177,0.254,0.364,0.278c-0.321,0.4,0.358,0.4,0.087,0.727c0.463-0.081,0.998-0.081,1.084-0.545
		c0.072-0.283-0.311-0.11-0.183-0.46c0.34,0.271,0.652,0,1.182,0c0.043-0.458-0.323,0-0.271-0.354
		c0.306,0.03,0.517-0.028,0.448-0.371c0.263,0.297,0.529-0.215,0.72,0c-0.208-0.508,0.481-0.828,0.546-1.348
		c0.078-0.13,0.07,0.509,0,0.721c0.179,0.036,0.285-0.012,0.281-0.173c0.393,0.13,0.022,0.473-0.194,0.53
		c0.249,0.536,0.907,1.439,1.631,0.91c0.034,0.056,0.034,0.117,0.006,0.191l0.725-0.565c-0.082-0.065-0.214-0.085-0.369-0.083
		c0.033-0.184-0.015-0.276-0.182-0.271c0.017-0.192,0.229-0.192,0.455-0.183c-0.078,0.192,0.3,0.351,0.267,0.183
		c0.056,0.021,0.056,0.108,0.084,0.155l2.493-1.948c-0.009-0.036-0.017-0.058-0.044-0.102C49.366,41.316,49.436,41.148,49.47,40.939
		z"/>
</g>
<g>
	<path fill="#FFFFFF" d="M374.771,40.939l-0.925-0.03c-0.046,0.047-0.077,0.111-0.046,0.248c-0.304-0.036-0.271-0.137-0.191-0.258
		l-1.772-0.057c-0.056,0.202,0.105,0.405,0.438,0.314c-0.035,0.274-0.36,0.258-0.37,0.542c-0.096-0.019-0.058-0.176-0.174-0.176
		c-0.214,0.025-0.214,0.248,0,0.27c-0.021,0.172-0.299,0.062-0.275,0.272c-0.146-0.22-0.39-0.941-0.725-1.259l-0.817-0.025
		c0.005,0.03-0.005,0.075,0.005,0.104c-0.229,0.015-0.289,0.173-0.457,0v0.639c-0.19,0.04-0.234-0.067-0.359-0.092
		c-0.168,0.367-0.174,0.536-0.452,0.905c-0.777-0.104-0.975-0.78-1.083-1.546c0.032-0.044,0.093-0.064,0.151-0.091l-2.575-0.084
		l-0.513-1.417c-0.009,0.075-0.06,0.111-0.131,0.249c-0.107-0.027-0.057-0.096,0-0.096c-0.073-0.158-0.169-0.013-0.28,0
		c0.27,0.338,0.224,0.917-0.271,1.355c0.169,0.33,0.254-0.162,0.461-0.092c-0.287,0.429,0.213,0.63,0,0.998
		c0.034,0.134,0.108-0.04,0.264,0c-0.072,0.254,0.128,0.235,0.092,0.451c-0.354,0.083-0.167,0.158-0.182,0.548
		c-0.348-0.406-0.595-0.914-0.993-1.277c-0.208,0.036-0.171,0.321-0.45,0.278c0.166-0.158-0.051-0.263-0.091-0.457
		c-0.369-0.036-0.578,0.089-0.818,0.179c0.056,0.096,0.21,0.096,0.184,0.278c-0.318-0.136-0.427-0.483-0.818-0.544
		c0.278-0.341,0.07-1.007,0.546-0.811c0.019-0.353-0.237-0.431-0.546-0.46c-0.063-0.272,0.311-0.104,0.177-0.447
		c0.289,0.066,0.183,0.066,0.458,0c-0.093-0.108-0.07-0.187,0.097-0.182c-0.097-0.118-0.157-0.275-0.275-0.365
		c0.28-0.088,0.264,0.135,0.542-0.176c0.037,0.266,0.227,0.653,0.087,0.818c0.169,0.196,0.327,0.345,0.459,0.352
		c0.163-0.013,0.203-0.149,0.18-0.352c0.643,0.291,0.566-0.515,1.232-0.453l-0.052-0.139c-0.378,0.084-0.954-0.134-0.91-0.683
		c0.296-0.032,0.506,0.049,0.706,0.108l-1.01-2.776c-0.064-0.035-0.116-0.072-0.146-0.136c0.03-0.004,0.051-0.023,0.082-0.03
		l-1.556-4.297l-0.275,0.733c0.065,0,0.104,0.021,0.121,0.066c0.261,0.456-0.349,0.621,0,0.726c-0.157,0.02-0.27-0.025-0.372-0.082
		l-0.436,1.19c0.321,0.045,0.704,0.181,0.717,0.614c-0.084,0.012-0.096-0.039-0.096-0.095c-0.101,0.027-0.04,0.095,0,0.095
		c-0.023,0.094-0.177,0.06-0.185,0.174c-0.285-0.011-0.388-0.222-0.612-0.305l-1.906,5.251c0.027,0.008,0.047,0.037,0.09,0.037
		c-0.012,0.06-0.077,0.066-0.119,0.055l-0.415,1.113l-1.769,0.058c0.496,0.434,0.435,1.416,1.119,1.663
		c-0.168,0.237-0.138,0.613,0.272,0.723c-0.246,0.134-0.41,0.345-0.72,0.18c0.006-0.105,0.166-0.075,0.265-0.096
		c-0.44-0.321-1.283-0.502-1.63-0.443c-0.504-0.327,0.08-0.832-0.625-1.001c0.071-0.073,0.563-0.306,0.456,0
		c0.249-0.125,0.115-0.284,0.169-0.717c0.259-0.034,0.408-0.171,0.564-0.3l-8.271,0.273l8.025,6.271l-2.66,9.271
		c0,0.074,0,0.133,0,0.215c-0.033,0.005-0.047-0.007-0.065,0l-0.09,0.308l7.296-4.935c-0.327-0.055-0.618-0.18-0.705-0.508
		c0.343,0.036,0.738,0.122,1.128,0.221l0.729-0.485l0.494,0.342c0.407-0.173,0.733,0.351,1.254,0.534
		c-0.094,0.093-0.111,0.162-0.128,0.23l0.6,0.396c0.144,0.059,0.273,0.147,0.375,0.258l1.248,0.837c0.064-0.137,0.143-0.231,0.155,0
		c0.08-0.048,0.167-0.081,0.183-0.183c-0.021-0.128-0.218-0.08-0.352-0.083c0.061-0.281-0.158-0.28-0.093-0.55
		c0.468,0.114,0.834,0.136,1.351,0.185c-0.021,0.269-0.196,0.399-0.272,0.631c0.285,0.029,0.256,0.945,0.729,1.082
		c-0.081-0.581,0.715-0.487,0.992-0.088c-0.024,0.399-0.055,0.42-0.156,0.724l0.644,0.437c0.04-0.034,0.113-0.034,0.148-0.075
		c0.034,0.021,0.028,0.086,0.003,0.174l0.615,0.418c-0.018-0.093-0.049-0.148-0.166-0.141c0.172-0.121,0.414-0.18,0.457-0.451
		c0.03,0.013,0.049,0.039,0.073,0.054l-0.858-2.994c-0.054-0.006-0.113-0.006-0.218-0.047c0.094-0.021,0.146-0.064,0.173-0.096
		l-0.156-0.534c0,0-0.01,0-0.017,0l0.017-0.028l-0.422-1.491c-0.029,0.017-0.051,0.034-0.051,0.065
		c-0.16-0.083-0.313-0.169-0.265-0.451c0.099-0.028,0.154-0.014,0.201,0.02l-0.667-2.348c-0.079-0.007-0.105-0.007-0.348-0.015
		c-0.087-0.239-0.267-0.548,0-0.641c0.101,0.023,0.045,0.097,0,0.097c0.045,0.169,0.123,0.1,0.179-0.004l-0.056-0.205
		c-0.038,0.011-0.063,0.024-0.123,0.03c-0.018-0.089-0.122-0.072-0.182-0.089c0.06-0.243,0.134-0.416-0.097-0.547
		c-0.278-0.008-0.223,0.327-0.538,0.27c-0.151-0.27-0.416-0.532-0.094-0.811c-0.215-0.649-0.905-0.431-1.081-0.902
		c-0.075,0.064-0.209,0.091-0.357,0.087c-0.146,0.004,0.022,0.479-0.188,0.637c0.016,0.095,0.167,0.074,0.281,0.085
		c0.039,0.2-0.188,0.134-0.189,0.272c0.294-0.037,0.097,0.377,0.454,0.814c0.162-0.186,0.276-0.083,0.361-0.183
		c0.214,0.213,0.315,0.533,0.538,0.728c-0.686-0.109-0.401,0.566-0.538,0.805c-0.555-0.217-1.063,0.217-1.444,0.455
		c-0.168-0.221-0.147-0.059-0.363-0.183c-0.16,0.017-0.057,0.313-0.183,0.361c-0.27-0.074-0.284-0.074-0.541,0
		c-0.077-0.307,0.133-0.345,0.091-0.634h0.36c-0.458-0.071-0.616-0.666-0.36-0.9c-0.027-0.184-0.4-0.02-0.459-0.184
		c-0.041-0.279,0.169-0.313,0.088-0.626c-0.16-0.136-0.272-0.329-0.627-0.276c-0.004-0.215-0.166-0.283,0-0.45
		c-0.707-0.015-0.459-0.489-0.899-0.809c0.119,0.106,0.139,0.031,0.27,0c-0.017-0.198-0.227-0.198-0.459-0.18
		c-0.076,0.06-0.127,0.155-0.176,0.267c-0.225,0.012-0.437,0.02-0.54-0.087c-0.105-0.587,0.324-0.645,0.453-0.992
		c0.167-0.093,0.298,0.268,0.351,0c0.145,0.268-0.1,0.348,0.371,0.36c-0.175,0.167-0.175,0.07-0.091,0.352
		c0.15,0.033,0.169-0.063,0.175-0.177c0.081,0.288,0.323,0.415,0.456,0.641c0.366-0.223,0.609,0.003,0.91-0.281
		c0.049-0.285-0.331-0.123-0.096-0.359c0.324-0.082,0.156,0.392,0.096,0.457c0.344,0.222,0.547-0.48,0.811-0.632
		c0.262,0.271,0.639-0.059,0.811,0.352c0.515-0.595-0.239-1.39,0.636-1.533c0.145,0.265-0.063,0.344,0.089,0.726
		c-0.218-0.012-0.443-0.012-0.446,0.182c0.176,0.262,0.457-0.131,0.541-0.278c0.116,0.097,0.178,0.254,0.356,0.278
		c-0.321,0.4,0.359,0.4,0.088,0.727c0.47-0.081,1.004-0.081,1.085-0.545c0.077-0.283-0.312-0.11-0.179-0.46
		c0.335,0.271,0.648,0,1.177,0c0.045-0.458-0.323,0-0.27-0.354c0.305,0.03,0.518-0.028,0.45-0.371c0.259,0.297,0.53-0.215,0.728,0
		c-0.215-0.508,0.469-0.828,0.536-1.348c0.082-0.13,0.064,0.509,0,0.721c0.18,0.036,0.286-0.012,0.272-0.173
		c0.404,0.13,0.025,0.473-0.185,0.53c0.25,0.536,0.908,1.439,1.638,0.91c0.024,0.056,0.024,0.117,0,0.191l0.729-0.565
		c-0.085-0.065-0.21-0.085-0.372-0.083c0.033-0.184-0.016-0.276-0.185-0.271c0.018-0.192,0.23-0.192,0.46-0.183
		c-0.081,0.192,0.295,0.351,0.265,0.183c0.052,0.021,0.052,0.108,0.08,0.155l2.496-1.948c-0.012-0.036-0.022-0.058-0.042-0.102
		C374.664,41.316,374.732,41.148,374.771,40.939z"/>
</g>
<g>
	<path fill="#FFFFFF" d="M112.531,58.227l-0.48-0.061l-0.54-0.12l-0.54-0.18l-0.72-0.3l-0.66-0.36l-0.54-0.3l-0.6-0.479l-0.54-0.54
		l-0.42-0.36l-0.36-0.42l-0.36-0.36l-0.24-0.479l-0.3-0.54l-0.3-0.72l-0.3-0.66l-0.18-0.54l-0.18-0.78l-0.12-0.72l-0.06-0.601
		l-0.06-0.539v-1.08l0.06-0.48l0.06-0.54l0.06-0.6l0.12-0.72l0.18-0.78l0.18-0.54l0.12-0.54l0.42-1.26l0.3-0.66l0.3-0.54l0.96-1.92
		l0.3-0.479l0.6-0.841l0.84-0.899l0.18-0.24l0.42-0.479l0.42-0.36l0.36-0.36l0.42-0.359l0.42-0.3l0.479-0.36l0.42-0.3l0.48-0.24
		l0.48-0.3l0.42-0.24l0.48-0.24l0.66-0.3l1.26-0.359l0.66-0.181l0.54-0.12l0.54-0.06l0.6-0.061h1.02l0.54,0.061l0.78,0.12l0.9,0.24
		l0.78,0.239l0.54,0.181l0.42,0.239l0.42,0.301l0.42,0.359l0.36,0.42l0.36,0.36l0.24,0.54l0.24,0.66l0.18,0.72l0.06,0.6l-0.06,0.72
		l-0.18,0.78l-0.18,0.54l-0.24,0.48l-0.3,0.479l-0.42,0.601l-0.42,0.539l-0.36,0.42l-0.42,0.36l-0.48,0.24l-0.78,0.12h-0.96
		l-0.96-0.24l-0.6-0.42v-0.6l0.3-0.54l0.42-0.66l0.36-0.54l0.24-0.54l0.12-0.48l0.12-0.54v-0.479l-0.12-0.54l-0.42-0.6l-0.6-0.42
		l-0.54-0.181l-0.54-0.06l-0.54,0.06l-0.72,0.12l-0.72,0.24l-0.54,0.24l-0.42,0.3l-0.479,0.36l-0.42,0.3l-0.48,0.359l-0.48,0.54
		l-0.42,0.42l-0.42,0.54l-0.54,0.66l-0.36,0.66l-0.24,0.54l-0.3,0.479l-0.24,0.42l-0.24,0.48l-0.18,0.54l-0.18,0.479l-0.18,0.54
		l-0.18,0.78l-0.18,0.72l-0.12,0.601l-0.12,0.72l-0.06,0.779l-0.06,0.601v0.78l0.06,0.96l0.18,0.84l0.18,0.6l0.6,1.2l0.36,0.479
		l0.36,0.36l0.42,0.36l0.66,0.3l0.72,0.3l0.54,0.12l0.78,0.12h1.32l1.38-0.12l0.54-0.12l0.66-0.18l0.54-0.24l0.66-0.36l0.66-0.3
		l1.44-0.899l0.6-0.48l0.54-0.48l0.84-0.72l0.72-0.84l0.36-0.36l0.72-0.84l0.6-0.84l0.36-0.54l0.18-0.359l0.42-0.66l0.36-0.601
		l0.24-0.539l0.42-0.78l0.6-0.42l0.78,0.12l0.479,0.54v0.659l-0.18,0.48l-0.24,0.479l-0.24,0.54l-0.3,0.601l-0.42,0.66l-0.48,0.659
		l-0.48,0.721l-0.9,1.319l-0.36,0.48l-0.3,0.42l-0.42,0.42l-1.08,1.26l-0.3,0.42l-0.36,0.36l-0.42,0.359l-0.84,0.601l-0.36,0.3
		l-0.42,0.3l-0.54,0.42l-0.479,0.3l-0.48,0.24l-0.479,0.3l-0.72,0.3l-0.72,0.24l-0.66,0.181l-0.72,0.119l-0.72,0.181l-1.08,0.18
		l-1.62,0.18l-1.08-0.119L112.531,58.227z"/>
	<path fill="#FFFFFF" d="M147.81,43.407l-0.3,0.42l-0.72,0.84l-0.84,0.72l-0.42,0.3l-0.54,0.3l-0.36,0.12l-0.6,0.36l-0.36,0.18
		l-0.54,0.24l-0.6,0.18l-0.54,0.181l-0.54,0.06l-0.6,0.12l-0.66,0.06l-0.72,0.12l-0.54,0.061h-0.54l-1.08-0.12l-1.08-0.061
		l-0.54-0.06l-1.62-0.36h-0.42l-0.3,0.24l-0.12,0.42v0.54l-0.06,0.6v1.021l0.06,0.6l0.12,0.48l0.36,1.08l0.6,0.96l0.36,0.42
		l0.36,0.359l0.96,0.601l0.6,0.18l0.54,0.18l0.42,0.061l0.54,0.12l0.54,0.06h0.6l0.54-0.06l1.56-0.301l0.54-0.119l0.54-0.181
		l0.48-0.18l1.02-0.42l0.96-0.48l0.84-0.659l0.42-0.301l0.42-0.359l0.84-0.78l0.72-0.84l0.3-0.42l0.36-0.48l0.6-0.84l0.3-0.479
		l0.24-0.48l0.3-0.479l0.24-0.48l0.3-0.42l0.24-0.479l0.24-0.54l0.24-0.48l0.3-0.479l0.42-0.301h0.54l0.54,0.36l0.3,0.54l-0.06,0.54
		l-0.24,0.54l-0.3,0.66l-0.36,0.66l-0.3,0.659l-0.36,0.66l-0.36,0.601l-0.6,0.96l-0.18,0.359l-0.36,0.54l-0.6,0.84l-0.36,0.42
		l-0.36,0.36l-0.36,0.42l-0.42,0.479l-0.18,0.24l-0.42,0.48l-0.36,0.42l-0.84,0.72l-0.6,0.48l-0.54,0.479l-0.96,0.6l-1.5,0.66
		l-0.48,0.181l-0.54,0.18l-0.78,0.12l-0.72,0.18l-1.26,0.12l-0.78,0.06l-0.66,0.061h-0.54l-2.16-0.24l-0.48-0.12l-0.54-0.18
		l-0.54-0.24l-0.48-0.24l-0.96-0.54l-0.479-0.239l-0.42-0.36l-0.42-0.42l-0.24-0.3l-0.42-0.48l-0.36-0.42l-0.3-0.479l-0.24-0.42
		l-0.24-0.54l-0.18-0.48l-0.18-0.54l-0.12-0.54l-0.12-0.479l-0.12-0.54l-0.18-1.62v-1.14l0.06-0.54v-0.54l0.36-1.62l0.18-0.479
		l0.12-0.54l0.18-0.54l0.12-0.54l0.18-0.54l0.24-0.66l0.3-0.72l0.3-0.54l0.36-0.66l0.42-0.6l0.24-0.54l0.3-0.42l0.36-0.42l0.9-0.96
		l0.9-0.9l0.48-0.42l0.54-0.42l0.6-0.42l0.54-0.42l0.6-0.36l0.6-0.3l0.54-0.24l0.78-0.359l1.26-0.42l1.08-0.24l0.78-0.12h1.32
		l0.78,0.12l0.96,0.18l0.78,0.18l0.54,0.181l0.54,0.24l0.48,0.239l0.36,0.24l0.84,0.72l0.36,0.42l0.36,0.601l0.3,0.72l0.18,0.54
		l0.12,0.54l0.06,0.54v0.72l-0.06,0.78l-0.06,0.6l-0.18,0.72l-0.24,0.721l-0.24,0.6l-0.18,0.3l-0.3,0.54L147.81,43.407z
		 M140.49,36.207l-0.84,0.36l-0.72,0.359l-0.48,0.301l-0.84,0.72l-0.54,0.54l-0.48,0.54l-0.42,0.479l-0.42,0.66l-0.42,0.6l-0.3,0.54
		l-0.36,0.66l-0.24,0.72l-0.24,0.54l-0.18,0.48l-0.06,0.42l0.3,0.3l0.78,0.18l1.2,0.061l0.6,0.06h1.68l0.6-0.12l0.54-0.12l0.6-0.239
		l0.36-0.12l0.6-0.3l0.42-0.301l0.42-0.359l0.42-0.42l0.42-0.36l0.36-0.479l0.3-0.42l0.24-0.48l0.3-0.54l0.36-1.08l0.12-0.6
		l0.06-0.54l-0.06-0.6l-0.24-0.54l-0.36-0.42l-0.48-0.36l-0.54-0.24l-0.54-0.12l-0.54-0.06l-0.6,0.12L140.49,36.207z"/>
	<path fill="#FFFFFF" d="M154.831,31.468l-0.54-1.62l-0.06-0.54v-0.54l0.12-0.54l0.24-0.54l0.3-0.42l0.36-0.42l0.42-0.36l0.48-0.24
		l0.54-0.119h0.54l0.54,0.119l0.48,0.301l0.36,0.359l0.24,0.48l0.18,0.54v1.62l-0.12,0.6v0.479l0.12,0.48l0.3,0.42l0.42,0.42
		l0.42,0.36l0.42,0.479l0.66,0.78l0.42,0.359l0.78,0.78l0.42,0.48l0.24,0.3l0.42,0.479l0.42,0.36l0.36,0.42l0.6,0.96l0.18,0.54
		l0.18,0.72l0.18,0.78l-0.06,0.54l-0.18,0.54l-0.24,0.479l-0.36,0.42l-0.6,0.96l-0.36,0.42l-0.3,0.48l-0.3,0.42l-0.36,0.479
		l-0.3,0.48l-0.36,0.479l-0.3,0.48l-1.02,2.04l-0.18,0.54l-0.18,0.479l-0.12,0.54l-0.12,0.601l-0.12,0.54l-0.06,0.539v0.601
		l0.24,1.2l0.3,0.479l0.3,0.54l0.42,0.36l0.48,0.3l0.6,0.12h1.14l0.54-0.12l0.54-0.18l0.54-0.24l0.42-0.3l0.9-0.601l0.48-0.359
		l0.42-0.36l0.36-0.36l0.36-0.479l1.08-1.26l0.9-1.44l0.3-0.42l0.3-0.54l0.3-0.479l0.24-0.48l0.3-0.54l0.18-0.359l0.36-0.66
		l0.24-0.48l0.18-0.479l0.24-0.48l0.54-0.3l0.78,0.18l0.54,0.601v0.66l-0.18,0.539l-0.479,1.021l-0.24,0.479l-0.3,0.48l-0.48,0.96
		l-0.6,0.96l-0.3,0.54l-0.24,0.3l-0.3,0.54l-0.6,0.96l-0.72,0.96l-0.48,0.66l-0.42,0.6l-0.72,0.84l-0.42,0.36l-0.72,0.72l-0.48,0.36
		l-0.54,0.359l-0.96,0.48l-0.54,0.24l-0.48,0.239l-0.54,0.181l-0.479,0.12l-0.6,0.12h-1.38l-0.78-0.061l-1.2-0.24l-0.48-0.18
		l-0.6-0.3l-0.9-0.601l-0.42-0.359l-0.36-0.36l-0.36-0.479l-0.3-0.42l-0.24-0.54l-0.24-0.48l-0.12-0.54l-0.12-0.6l-0.12-0.54
		l-0.06-0.54v-0.54l0.24-2.16l0.18-0.54l0.18-0.479l0.24-0.54l0.3-0.66l0.36-0.66l0.3-0.54l0.42-0.659l0.42-0.601l0.3-0.54
		l0.36-0.66l0.48-0.659l0.36-0.48l0.48-0.84l0.66-0.96l0.3-0.66l0.18-0.899l-0.12-0.721l-0.6-0.96l-0.36-0.479l-0.96-1.08
		l-0.36-0.42l-0.48-0.36l-0.48,0.12l-0.24,0.54l-0.12,0.54l-0.18,0.54l-0.12,0.54l-0.12,0.479l-0.18,0.54l-0.54,1.44l-0.18,0.54
		l-0.18,0.479l-0.18,0.54l-0.3,0.72l-0.3,0.66l-0.24,0.54l-0.3,0.72l-0.3,0.66l-0.3,0.601l-0.3,0.659l-0.36,0.66l-0.3,0.48
		l-0.36,0.3h-0.54l-0.48-0.3l-0.36-0.42l0.06-0.48l0.18-0.54l0.24-0.54l0.18-0.479l0.18-0.54l0.479-1.08l0.18-0.36l0.24-0.6
		l0.24-0.479l0.18-0.54l0.24-0.54l0.18-0.54l0.18-0.48l0.479-1.08l0.12-0.54l0.18-0.539l0.12-0.54l0.24-0.54l0.12-0.54l0.12-0.48
		l0.12-0.54l0.18-0.54l0.12-0.6v-0.54l-0.12-0.48L154.831,31.468z"/>
	<path fill="#FFFFFF" d="M174.511,58.166l-0.6-0.24l-0.36-0.18l-0.54-0.3l-0.42-0.3l-0.42-0.42l-0.72-0.84l-0.24-0.54l-0.18-0.48
		l-0.12-0.54l-0.12-0.6v-0.54l0.06-0.54v-0.6l0.06-0.601l0.12-0.72l0.12-0.78l0.12-0.66l0.36-1.439l0.12-0.54l0.18-0.54l0.06-0.479
		l0.12-0.54l0.18-0.54l0.18-0.721l0.24-0.72l0.24-1.08l0.18-0.54l0.18-0.479l0.24-0.48l0.18-0.479l0.18-0.54l0.24-1.08l0.24-0.66
		l0.18-0.54l0.24-0.54l0.24-0.659l0.18-0.54l0.18-0.48l0.12-0.54l0.18-0.479l0.18-0.54l0.24-0.48l0.36-0.3l0.54-0.24l0.54-0.18h1.14
		l0.6,0.12l0.48,0.18l0.48,0.24l0.3,0.36v0.539l-0.12,0.54l-0.24,0.721l-0.3,0.659l-0.24,0.54l-0.18,0.48l-0.18,0.54l-0.18,0.479
		l-0.18,0.54l-0.24,0.78l-0.3,0.9l-0.24,0.779l-0.18,0.54l-0.18,0.78l-0.42,1.26l-0.18,0.78l-0.24,0.96l-0.18,0.779l-0.18,0.601
		l-0.36,1.439l-0.12,0.601l-0.12,0.779l-0.06,0.721l-0.06,0.6l-0.06,0.479v0.601l0.12,0.78l0.18,0.72l0.3,0.479l0.36,0.36l0.48,0.18
		l0.78,0.061l0.96-0.181l0.9-0.359l0.84-0.48l0.78-0.6l0.54-0.48l0.24-0.42l-0.06-0.66l-0.3-0.779l-0.12-0.78l0.18-0.54l0.3-0.42
		l0.48-0.359l0.72-0.12l0.84,0.06h0.6l0.36-0.36l0.72-1.319l0.3-0.48l0.24-0.479l0.18-0.54l0.18-0.48l0.24-0.6l0.12-0.36l0.24-0.6
		l0.3-0.72l0.42-1.26l0.12-0.54l0.12-0.48l0.24-1.08l0.18-0.479l0.12-0.54l0.18-0.54l0.06-0.48l0.06-0.54v-0.54l0.06-0.539
		l0.06-0.601l0.06-0.72l0.12-0.78l0.36-0.42l0.72-0.24l1.02-0.06l0.96,0.12l0.9,0.3l0.6,0.48l0.24,0.479l0.06,0.54l-0.12,1.08
		l-0.12,0.479l-0.06,0.54l-0.12,0.601l-0.12,0.54l-0.12,0.479l-0.12,0.54l-0.06,0.54l-0.12,0.54l-0.36,1.08l-0.12,0.6l-0.06,0.36
		l-0.18,0.6l-0.18,0.54l-0.18,0.6l-0.12,0.36l-0.24,0.601l-0.3,0.539l-0.18,0.36l-0.48,1.08l-0.24,0.479l-0.24,0.54l-0.3,0.54
		l-0.3,0.48l-0.24,0.359l-0.6,0.96l-0.24,0.421l-0.36,0.479l-0.12,0.36l0.36,0.239l0.78,0.061h0.78l0.54-0.12l0.66-0.12l0.54-0.24
		l0.54-0.3l0.66-0.359l0.42-0.301l1.5-1.5l0.3-0.42l0.3-0.479l0.3-0.42l0.3-0.48l0.36-0.66l0.3-0.659l0.3-0.54l0.36-0.66l0.6-0.54
		l0.72,0.12l0.48,0.66v0.779l-0.3,0.721l-0.72,1.439l-0.3,0.48l-0.24,0.42l-0.66,1.02l-0.18,0.3l-0.42,0.54l-0.48,0.54l-1.32,1.32
		l-0.42,0.359l-0.66,0.36l-1.14,0.66l-0.48,0.24l-1.08,0.239l-0.6,0.061l-0.78,0.12l-0.66,0.06l-0.6-0.06l-0.54-0.061l-0.54-0.12
		l-0.72-0.12l-0.66,0.061l-0.42,0.24l-0.42,0.359l-0.36,0.36l-0.84,0.72l-0.66,0.42l-0.6,0.42l-0.54,0.36l-0.66,0.3l-0.72,0.3
		l-0.54,0.181l-0.48,0.18l-0.54,0.18l-0.78,0.12l-0.72,0.061l-0.6,0.06l-1.5-0.12h-0.6L174.511,58.166z"/>
	<path fill="#FFFFFF" d="M217.108,43.407l-0.3,0.42l-0.72,0.84l-0.84,0.72l-0.42,0.3l-0.54,0.3l-0.36,0.12l-0.6,0.36l-0.36,0.18
		l-0.54,0.24l-0.6,0.18l-0.54,0.181l-0.54,0.06l-0.6,0.12l-0.66,0.06l-0.72,0.12l-0.54,0.061h-0.54l-1.08-0.12l-1.08-0.061
		l-0.54-0.06l-1.62-0.36h-0.42l-0.3,0.24l-0.12,0.42v0.54l-0.06,0.6v1.021l0.06,0.6l0.12,0.48l0.36,1.08l0.6,0.96l0.359,0.42
		l0.36,0.359l0.96,0.601l0.6,0.18l0.54,0.18l0.421,0.061l0.539,0.12l0.54,0.06h0.601l0.54-0.06l1.56-0.301l0.54-0.119l0.54-0.181
		l0.479-0.18l1.021-0.42l0.96-0.48l0.84-0.659l0.42-0.301l0.42-0.359l0.84-0.78l0.72-0.84l0.301-0.42l0.359-0.48l0.601-0.84
		l0.3-0.479l0.24-0.48l0.3-0.479l0.24-0.48l0.3-0.42l0.24-0.479l0.239-0.54l0.24-0.48l0.3-0.479l0.42-0.301h0.54l0.54,0.36l0.3,0.54
		l-0.06,0.54l-0.24,0.54l-0.3,0.66l-0.36,0.66l-0.3,0.659l-0.36,0.66l-0.359,0.601l-0.6,0.96l-0.181,0.359l-0.359,0.54l-0.601,0.84
		l-0.359,0.42l-0.36,0.36l-0.36,0.42l-0.42,0.479l-0.18,0.24l-0.42,0.48l-0.36,0.42l-0.84,0.72l-0.6,0.48l-0.54,0.479l-0.96,0.6
		l-1.5,0.66l-0.48,0.181l-0.54,0.18l-0.779,0.12l-0.721,0.18l-1.26,0.12l-0.779,0.06l-0.66,0.061h-0.54l-2.16-0.24l-0.479-0.12
		l-0.54-0.18l-0.54-0.24l-0.48-0.24l-0.96-0.54l-0.479-0.239l-0.42-0.36l-0.42-0.42l-0.24-0.3l-0.42-0.48l-0.36-0.42l-0.3-0.479
		l-0.24-0.42l-0.24-0.54l-0.18-0.48l-0.18-0.54l-0.12-0.54l-0.12-0.479l-0.12-0.54l-0.18-1.62v-1.14l0.06-0.54v-0.54l0.36-1.62
		l0.18-0.479l0.12-0.54l0.18-0.54l0.12-0.54l0.18-0.54l0.24-0.66l0.3-0.72l0.3-0.54l0.36-0.66l0.42-0.6l0.24-0.54l0.3-0.42
		l0.36-0.42l0.9-0.96l0.899-0.9l0.48-0.42l0.54-0.42l0.6-0.42l0.54-0.42l0.6-0.36l0.601-0.3l0.54-0.24l0.779-0.359l1.261-0.42
		l1.079-0.24l0.78-0.12h1.32l0.779,0.12l0.96,0.18l0.78,0.18l0.54,0.181l0.54,0.24l0.479,0.239l0.36,0.24l0.84,0.72l0.36,0.42
		l0.359,0.601l0.301,0.72l0.18,0.54l0.12,0.54l0.06,0.54v0.72l-0.06,0.78l-0.061,0.6l-0.18,0.72l-0.24,0.721l-0.239,0.6l-0.181,0.3
		l-0.3,0.54L217.108,43.407z M209.789,36.207l-0.84,0.36l-0.72,0.359l-0.48,0.301l-0.84,0.72l-0.54,0.54l-0.48,0.54l-0.42,0.479
		l-0.42,0.66l-0.42,0.6l-0.3,0.54l-0.36,0.66l-0.239,0.72l-0.24,0.54l-0.18,0.48l-0.061,0.42l0.3,0.3l0.78,0.18l1.2,0.061l0.6,0.06
		h1.68l0.601-0.12l0.54-0.12l0.6-0.239l0.36-0.12l0.6-0.3l0.42-0.301l0.42-0.359l0.42-0.42l0.42-0.36l0.36-0.479l0.3-0.42l0.24-0.48
		l0.3-0.54l0.36-1.08l0.12-0.6l0.06-0.54l-0.06-0.6l-0.24-0.54l-0.36-0.42l-0.479-0.36l-0.54-0.24l-0.54-0.12l-0.54-0.06l-0.6,0.12
		L209.789,36.207z"/>
	<path fill="#FFFFFF" d="M235.168,46.406l-0.24,0.54l-0.6,1.38l-0.9,1.44l-0.239,0.3l-0.36,0.601l-0.66,1.319l-0.359,0.48
		l-0.301,0.42l-0.72,0.84l-0.3,0.42l-1.44,1.68l-0.479,0.54l-0.54,0.48l-0.9,0.72l-0.42,0.359l-0.84,0.601l-0.899,0.6l-1.32,0.78
		l-0.54,0.36l-0.66,0.3l-0.66,0.359l-0.479,0.36l-0.24,0.36l-0.18,0.54l-0.36,1.619l-0.12,0.48l-0.18,0.54l-0.12,0.54l-0.18,0.54
		l-0.18,0.479l-0.12,0.54l-0.181,0.54l-0.42,1.02l-0.18,0.54l-0.24,0.54l-0.239,0.48l-0.24,0.42l-0.24,0.479l-0.3,0.54l-0.3,0.42
		l-1.44,1.681l-0.84,0.72l-0.479,0.3l-0.54,0.18l-0.601,0.24l-0.359,0.12l-0.601,0.18l-0.54,0.12l-0.54,0.061h-0.54l-0.6-0.061
		l-0.72-0.12l-0.66-0.12l-0.6-0.119l-0.601-0.24l-0.96-0.601l-0.42-0.359l-0.36-0.42l-0.3-0.42l-0.3-0.48l-0.24-0.479l-0.119-0.54
		l-0.061-0.54v-0.54l0.061-0.6l0.119-1.08l0.181-0.48l0.239-0.54l0.24-0.42l0.24-0.479l0.36-0.48l1.439-1.68l0.84-0.72l0.84-0.601
		l0.48-0.359l0.42-0.301l0.54-0.359l0.359-0.18l0.54-0.301l1.08-0.54l1.021-0.42l1.8-0.899l0.54-0.181l0.42-0.239l0.359-0.301
		l0.181-0.479l0.359-1.08l0.36-1.439l0.18-0.601l0.12-0.54l0.181-0.54l0.18-0.72l0.18-0.78l0.18-0.539l0.12-0.48l0.181-0.54
		l0.119-0.54l0.12-0.479l0.12-0.54l0.181-0.54l0.239-1.08l0.181-0.78l0.18-0.72l0.18-0.6l0.181-0.721l0.18-0.779l0.24-0.54
		l0.119-0.48l0.181-0.54l0.12-0.54l0.06-0.479l0.24-1.08l0.18-0.54l0.12-0.48l0.36-1.079l0.12-0.54l0.119-0.48l0.24-1.08l0.12-0.479
		l0.18-0.54l0.24-1.08l0.24-0.72l0.3-0.72l0.42-0.36l0.48-0.12h1.619l0.54,0.06l0.54,0.181l0.48,0.24l0.24,0.42v0.479l-0.12,0.54
		l-0.12,0.48l-0.18,0.539l-0.12,0.48l-0.181,0.54l-0.12,0.54l-0.18,0.54l-0.18,0.72l-0.42,1.26l-0.181,0.48l-0.119,0.54l-0.181,0.54
		l-0.12,0.539l-0.18,0.721l-0.12,0.779l-0.18,0.54l-0.18,0.48l-0.12,0.54l-0.181,0.479l-0.12,0.54l-0.18,0.66l-0.3,1.14l-0.24,1.08
		l-0.18,0.72l-0.12,0.54l-0.18,0.54l-0.12,0.54l-0.36,1.44l-0.18,0.6l-0.18,0.48l-0.12,0.54l-0.181,0.779l-0.18,0.721l-0.18,0.6
		l-0.061,0.6l0.301,0.24l0.659-0.24l0.9-0.479l0.479-0.3l0.42-0.301l2.101-1.8l0.359-0.359l0.36-0.42l0.72-0.78l0.36-0.42l0.42-0.42
		l0.6-0.84l0.601-0.9l0.42-0.72l0.42-0.6l0.3-0.54l0.3-0.48l0.24-0.42l0.3-0.479l0.24-0.48l0.24-0.54l0.239-0.42l0.48-0.96
		l0.54-0.36l0.72,0.181l0.48,0.54l0.06,0.6l-0.18,0.54L235.168,46.406z M215.669,64.586l0.12-0.78l-0.301-0.239l-0.659,0.3
		l-0.721,0.42l-0.479,0.359l-1.38,1.08l-0.78,0.66l-0.66,0.72l-0.54,0.601l-0.359,0.42l-0.24,0.479l-0.18,0.48l-0.12,0.72l0.06,0.84
		l0.48,0.78l0.72,0.42l0.66,0.12l0.6-0.12l0.48-0.24l0.479-0.359l0.36-0.36l0.3-0.48l0.3-0.539l0.3-0.48l0.24-0.48l0.24-0.539
		l0.18-0.54l0.24-0.54l0.18-0.78L215.669,64.586z M228.988,25.287l0.42,0.36l0.36,0.42l0.239,0.48l0.181,0.54l0.06,0.54v0.539
		l-0.359,1.08l-0.301,0.54l-0.42,0.42l-0.54,0.3l-0.54,0.181l-0.54,0.06l-0.6,0.061l-0.54-0.12l-0.479-0.24l-0.42-0.36l-0.36-0.42
		l-0.3-0.479l-0.181-0.48l-0.119-0.54l0.06-0.6l0.12-0.54l0.24-0.54l0.42-0.42l0.42-0.359l0.479-0.36l1.08-0.36h0.54l0.54,0.061
		L228.988,25.287z"/>
	<path fill="#FFFFFF" d="M263.128,46.467l-0.12,0.3l-0.3,0.6l-0.301,0.42l-0.239,0.48l-0.24,0.54l-0.24,0.479l-0.6,0.96l-0.3,0.421
		l-0.301,0.479l-0.239,0.479l-0.301,0.48l-0.359,0.42l-0.36,0.48l-0.359,0.42l-0.66,0.84l-0.36,0.42l-0.359,0.359l-1.681,1.44
		l-0.479,0.3l-0.54,0.3l-0.66,0.3l-0.72,0.301l-0.54,0.18l-0.54,0.12h-0.6l-0.721-0.061l-0.72-0.18l-0.54-0.18l-0.42-0.3l-0.42-0.36
		l-0.42-0.6l-0.42-0.66l-0.18-0.54l-0.181-0.72l-0.06-0.78v-0.6l0.06-0.78l0.061-0.72l-0.181-0.12l-0.3,0.42l-0.6,0.96l-0.601,0.84
		l-0.359,0.42l-0.3,0.42l-0.36,0.42l-0.3,0.42l-0.42,0.36l-0.36,0.359l-0.42,0.36l-0.42,0.3l-0.48,0.3l-0.659,0.42l-0.9,0.421
		l-0.96,0.3l-0.78,0.18l-1.079,0.12l-0.601-0.06l-0.72-0.12l-0.72-0.181l-0.54-0.18l-0.48-0.18l-0.42-0.301l-0.84-0.72l-0.3-0.42
		l-0.3-0.479l-0.36-0.66l-0.36-0.9l-0.18-0.779l-0.06-0.601l-0.12-0.779l-0.061-0.96v-0.78l0.061-0.601l0.06-0.779l0.12-0.72
		l0.18-0.601l0.181-0.72l0.18-0.78l0.18-0.54l0.24-0.479l0.18-0.54l1.44-2.88l0.3-0.48l0.3-0.42l0.301-0.479l0.6-0.84l0.359-0.42
		l0.78-0.9l0.24-0.24l0.42-0.479l0.84-0.72l0.54-0.54l0.66-0.48l0.84-0.66l0.48-0.3l0.42-0.3l0.539-0.24l0.721-0.3l0.66-0.36
		l0.6-0.3l0.72-0.24l0.72-0.18l0.601-0.18l1.5-0.12l0.54-0.061h0.72l1.2,0.061l1.38,0.12l1.319,0.24l0.54,0.119l0.66,0.181l2.4,1.08
		l0.42,0.359l0.42,0.3l0.42,0.36l0.359,0.42l0.12,0.66l-0.239,0.84l-0.66,0.72l-0.66,0.42l-0.48,0.061l-0.479-0.181l-0.48-0.359
		l-0.539-0.3l-0.48-0.3l-0.42-0.181l-0.48-0.24l-0.539-0.239l-0.48-0.12l-1.02-0.24l-0.601-0.18l-0.6-0.12h-1.2l-0.42,0.06
		l-0.6,0.061l-0.78,0.18l-1.5,0.54l-0.6,0.3l-0.601,0.36l-0.42,0.3l-0.479,0.3l-0.42,0.3l-0.42,0.36l-0.48,0.42l-0.24,0.24
		l-0.42,0.479l-0.359,0.42l-0.301,0.42l-0.72,0.841l-0.3,0.42l-0.3,0.479l-0.72,1.44l-0.301,0.479l-0.359,1.08l-0.24,0.54
		l-0.24,0.479l-0.359,1.62l-0.181,0.601l-0.18,1.619v1.681l0.06,0.6l0.181,0.54l0.24,0.479l0.3,0.48l0.359,0.36l0.54,0.239
		l0.721,0.12l0.779-0.06l0.54-0.18l0.96-0.48l0.84-0.72l0.36-0.36l0.42-0.359l0.36-0.421l0.3-0.42l0.359-0.42l0.301-0.42
		l0.659-0.899l0.301-0.42l0.899-1.44l0.36-0.66l0.42-0.779l0.24-0.36l0.72-1.56l0.24-0.54l0.119-0.42l0.24-0.54l0.181-0.48
		l0.18-0.54l0.24-0.66l0.359-1.199l0.24-0.66l0.18-0.6l0.36-0.54l0.6-0.301l0.54-0.12l0.54,0.061l0.54,0.12l0.96,0.479l0.48,0.301
		l0.239,0.359l0.061,0.54l-0.181,0.48l-0.119,0.54l-0.181,0.539l-0.24,1.08l-0.18,0.54l-0.12,0.48l-0.359,1.08l-0.12,0.6
		l-0.061,0.36l-0.18,0.72l-0.12,0.54l-0.24,1.02l-0.18,0.721l-0.12,0.6l-0.12,0.66l-0.18,0.899l-0.18,1.021l-0.061,0.899l0.061,0.78
		l0.3,0.479l0.6,0.301l0.9,0.06l0.72-0.24l0.54-0.3l0.84-0.6l0.42-0.42l0.721-0.78l0.72-0.84l0.6-0.84l0.3-0.48l0.36-0.479
		l0.12-0.36l0.96-1.439l0.24-0.48l0.3-0.479l1.199-2.4l0.54-0.3l0.721,0.12l0.479,0.6l0.061,0.601l-0.24,0.539L263.128,46.467z"/>
	<path fill="#FFFFFF" d="M290.246,46.347l-0.239,0.54l-0.24,0.479l-0.3,0.48l-0.24,0.479l-0.3,0.54l-0.3,0.48l-0.301,0.42
		l-1.439,1.68l-0.42,0.42l-0.42,0.36l-0.42,0.3l-0.48,0.36l-0.42,0.3l-0.54,0.24l-0.479,0.239l-0.54,0.181l-0.42,0.12l-0.54,0.119
		l-0.721,0.12l-0.6,0.061l-0.42,0.06h-0.6l-0.54-0.06h-0.48l-0.359,0.18l-0.301,0.36l-0.3,0.42l-0.42,0.42l-0.54,0.479l-0.6,0.48
		l-0.54,0.359l-0.66,0.36l-0.6,0.36l-0.54,0.239l-0.78,0.181l-0.96,0.18l-1.02,0.061l-0.78,0.06h-0.6l-0.601-0.06l-0.54-0.181
		l-0.42-0.18l-0.54-0.24l-0.54-0.3l-0.899-0.66l-0.42-0.359l-0.42-0.421l-0.9-1.439l-0.18-0.54l-0.36-1.62l-0.06-0.6v-1.08l0.12-0.6
		l0.359-0.66l0.721-0.601l0.899-0.239l0.72,0.06l0.36,0.36l0.06,0.479v0.54l-0.06,0.54l0.06,0.54l0.24,1.08l0.24,0.479l0.3,0.48
		l0.3,0.42l0.36,0.42l0.42,0.3l0.479,0.24l0.48,0.18l0.54,0.12h0.6l0.48-0.06l0.54-0.181l0.42-0.239l0.479-0.36l0.42-0.36l0.3-0.6
		v-0.6l-0.3-0.42l-0.359-0.48l-0.24-0.479l-0.06-0.601l0.06-0.54l0.3-0.54l0.36-0.359l0.899-0.601l0.24-0.3v-0.42l-0.12-0.54
		l-0.18-0.54l-0.18-0.479l-0.181-0.54l-0.12-0.48l-0.18-0.54l-0.18-0.479l-0.181-0.54l-0.18-0.48l-0.24-0.479l-0.18-0.48l-0.18-0.54
		l-0.181-0.479l-0.18-0.54l-0.18-0.48l-0.181-0.539l-0.18-0.48l-0.18-0.6l-0.24-0.721l-0.18-0.72l-0.18-0.54l-0.12-0.54
		l-0.061-0.479l-0.06-0.54l-0.12-0.36l-0.36,0.12l-0.84,0.84l-0.359,0.42l-0.601,0.84l-0.3,0.48l-0.3,0.42l-0.66,1.2l-0.36,0.66
		l-0.239,0.539l-0.301,0.421l-0.239,0.479l-0.24,0.42l-0.24,0.48l-0.359,0.779l-0.36,0.66l-0.24,0.54l-0.54,0.96l-0.24,0.48
		l-0.239,0.539l-0.36,0.66l-0.479,0.54l-0.54,0.12l-0.601-0.3l-0.3-0.48l0.061-0.54l0.119-0.539l0.48-0.96l0.3-0.54l0.18-0.36
		l0.301-0.54l0.239-0.54l0.181-0.479l0.72-1.44l0.3-0.479l0.24-0.54l0.359-0.66l0.421-0.66l0.3-0.54l0.3-0.479l0.24-0.48l0.3-0.54
		l0.24-0.3l0.3-0.54l0.3-0.42l1.439-1.68l0.721-0.78l0.359-0.42l0.42-0.42l0.42-0.36l0.96-0.6l0.54-0.24l0.601-0.18l0.54-0.12
		l0.479-0.06l0.54,0.06l0.54,0.12l0.48,0.3l0.359,0.42l0.18,0.48v0.54l-0.119,0.539l-0.24,0.48l-0.3,0.48l-0.12,0.479l-0.061,0.54
		l0.12,0.72l0.181,0.72l0.119,0.601l0.301,0.78l0.3,0.959l0.359,0.961l0.66,1.68l0.24,0.54l0.24,0.72l0.359,0.66l0.24,0.54
		l0.18,0.479l0.181,0.54l0.54,1.44l0.18,0.54l0.12,0.779l0.12,0.96l0.12,0.78l0.06,0.6v1.5l0.06,0.48l0.181,0.3l0.479,0.12h0.54
		l1.08-0.12l1.08-0.36l0.479-0.18l0.961-0.6l0.42-0.36l0.84-0.78l0.779-0.779l0.301-0.42l1.199-1.92l0.24-0.48l0.24-0.54l0.18-0.479
		l0.3-0.48l0.54-0.36l0.721,0.181l0.539,0.6v0.601l-0.18,0.539L290.246,46.347z"/>
</g>
</svg>
