<?xml version="1.0" encoding="utf-8"?>
<!-- Generator: Adobe Illustrator 16.0.0, SVG Export Plug-In . SVG Version: 6.00 Build 0)  -->
<!DOCTYPE svg PUBLIC "-//W3C//DTD SVG 1.1//EN" "http://www.w3.org/Graphics/SVG/1.1/DTD/svg11.dtd">
<svg version="1.1" id="Layer_1" xmlns="http://www.w3.org/2000/svg" xmlns:xlink="http://www.w3.org/1999/xlink" x="0px" y="0px"
	 width="30.126px" height="73.843px" viewBox="0 0 30.126 73.843" enable-background="new 0 0 30.126 73.843" xml:space="preserve">
<rect x="827.878" y="8090.222" fill="#1BBC41" width="1920" height="132"/>
<g>
	<path fill-rule="evenodd" clip-rule="evenodd" fill="#FEFEFE" d="M1524.871,8144.008v-4.885c0-2.403,1.593-2.952,2.716-2.952
		s6.87,0,6.87,0v-10.477l-9.456-0.053c-10.475,0-12.878,7.839-12.878,12.828v5.538h-6.06v7.394v4.833h6.113
		c0,13.847,0,30.567,0,30.567h12.225c0,0,0-16.878,0-30.567h9.09l0.444-4.807l0.679-7.42H1524.871z"/>
	<path fill-rule="evenodd" clip-rule="evenodd" fill="#FEFEFE" d="M1812.237,8137.556c-2.246,0.992-4.649,1.646-7.184,1.96
		c2.587-1.542,4.572-3.945,5.512-6.846c-2.429,1.411-5.119,2.456-7.967,3.005c-2.299-2.404-5.563-3.893-9.169-3.893
		c-6.923,0-12.539,5.512-12.539,12.33c0,0.967,0.105,1.908,0.313,2.822c-10.422-0.523-19.669-5.434-25.861-12.906
		c-1.071,1.829-1.697,3.945-1.697,6.218c0,4.284,2.22,8.048,5.59,10.269c-2.063-0.053-3.997-0.629-5.695-1.543
		c0,0.053,0,0.104,0,0.156c0,1.594,0.313,3.084,0.862,4.469c1.542,3.893,4.989,6.818,9.221,7.654
		c-1.071,0.26-2.168,0.417-3.317,0.417c-0.81,0-1.593-0.077-2.351-0.209c1.594,4.912,6.217,8.465,11.703,8.569
		c-4.284,3.318-9.691,5.305-15.569,5.305c-1.019,0-2.011-0.08-3.004-0.184c5.564,3.5,12.173,5.537,19.252,5.537
		c19.591,0,31.66-13.584,34.82-27.665c0.574-2.507,0.862-5.017,0.862-7.472c0-0.522,0-1.071-0.027-1.594
		C1808.45,8142.206,1810.565,8140.038,1812.237,8137.556L1812.237,8137.556z"/>
	<path fill-rule="evenodd" clip-rule="evenodd" fill="#FEFEFE" d="M1661.2,8155.581l-16.509,8.909v-13.716v-4.18l7.444,4.049
		L1661.2,8155.581z M1680.975,8143.485c0,0-0.601-4.414-2.429-6.348c-2.325-2.534-4.937-2.534-6.139-2.691
		c-8.568-0.627-21.394-0.627-21.394-0.627h-0.026c0,0-12.826,0-21.394,0.627c-1.202,0.157-3.788,0.157-6.138,2.717
		c-1.829,1.934-2.403,6.322-2.403,6.322s-0.627,5.146-0.627,10.32v0.627v4.205c0,5.173,0.627,10.32,0.627,10.32
		s0.574,4.389,2.403,6.322c2.351,2.56,5.407,2.48,6.766,2.742c4.885,0.471,20.792,0.627,20.792,0.627s12.826-0.025,21.394-0.653
		c1.202-0.156,3.813-0.156,6.139-2.716c1.828-1.934,2.429-6.322,2.429-6.322s0.601-5.147,0.601-10.32v-3.944v-0.888
		C1681.576,8148.632,1680.975,8143.485,1680.975,8143.485L1680.975,8143.485z"/>
	<path fill-rule="evenodd" clip-rule="evenodd" fill="#FEFEFE" d="M2064.965,8153.23c-0.392,0-0.758,0-1.123,0
		c0-0.079,0-0.157,0-0.235c0-0.287,0-0.521,0-0.758c0-1.438,0.027-2.848-0.024-4.258c0-0.235-0.236-0.654-0.393-0.654
		c-1.28-0.051-2.587-0.051-3.945-0.051c0,1.697,0,3.317,0,4.963c0,0.34,0,0.654,0,0.967c-1.985,0-3.919,0-5.956,0
		c0,0.443,0,0.758,0,1.045c0.053,1.07,0.104,2.143,0.156,3.213c1.046,0.053,2.09,0.105,3.136,0.131c0.888,0,1.75,0,2.716,0
		c0,2.037,0,3.945,0,5.826c1.464,0,2.822,0,4.286,0c0-1.933,0-3.841,0-5.852c2.01,0,3.918,0,5.876,0c0-1.125,0-2.195,0-3.293
		c0-0.338,0-0.704,0-1.044C2068.101,8153.23,2066.558,8153.23,2064.965,8153.23L2064.965,8153.23z M2048.118,8152.733
		c-3.683,0.053-7.393,0-11.102,0c-1.046,0-2.117,0-3.161,0.027c-0.208,0.025-0.575,0.261-0.575,0.391
		c-0.025,2.144-0.025,4.258-0.025,6.531c3.056,0,6.008,0,9.063,0c-0.104,0.418-0.184,0.758-0.288,1.046
		c-1.384,4.127-5.641,6.165-10.212,5.434c-5.67-0.94-9.195-6.19-8.204-11.86c0.159-0.811,0.393-1.568,0.733-2.299
		c1.881-4.128,6.504-6.609,11.101-5.617c1.646,0.366,3.031,1.148,4.259,2.221c1.646-1.672,3.238-3.292,4.962-5.016
		c-0.129-0.078-0.286-0.184-0.417-0.313c-4.022-3.396-8.595-4.625-13.766-3.789c-7.394,1.228-12.723,7.054-13.898,13.847
		c-0.521,2.926-0.286,6.01,0.89,8.986c2.82,7.237,10.082,11.652,17.867,10.79c3.786-0.417,7.157-1.776,9.821-4.599
		c3.894-4.154,4.912-9.195,4.283-14.707C2049.345,8152.892,2048.979,8152.708,2048.118,8152.733L2048.118,8152.733z"/>
	<path fill-rule="evenodd" clip-rule="evenodd" fill="#FEFEFE" d="M1912.884,8180.478c-5.119,0-9.899-1.515-13.87-4.127
		l-9.717,3.084l3.16-9.302c-3.004-4.128-4.808-9.222-4.808-14.682c0-0.837,0.053-1.646,0.132-2.43
		c1.228-12.671,12.016-22.624,25.103-22.624c13.27,0,24.163,10.189,25.156,23.094c0.052,0.627,0.077,1.279,0.077,1.96
		C1938.118,8169.245,1926.808,8180.478,1912.884,8180.478L1912.884,8180.478z M1926.651,8161.459
		c-0.758-0.365-4.362-2.142-5.041-2.378c-0.681-0.232-1.176-0.365-1.647,0.367c-0.494,0.732-1.905,2.377-2.351,2.848
		c-0.417,0.496-0.835,0.549-1.593,0.184c-0.732-0.367-3.083-1.125-5.903-3.606c-2.194-1.933-3.657-4.336-4.102-5.067
		c-0.418-0.732-0.025-1.125,0.34-1.49c0.313-0.313,0.731-0.836,1.097-1.279c0.105-0.104,0.184-0.236,0.263-0.34
		c0.182-0.288,0.286-0.523,0.47-0.862c0.233-0.497,0.129-0.915-0.053-1.28c-0.184-0.365-1.672-3.971-2.273-5.434
		c-0.626-1.463-1.227-1.201-1.672-1.201c-0.417-0.027-0.914-0.079-1.409-0.079c-0.472,0-1.281,0.183-1.96,0.915
		c-0.653,0.73-2.56,2.508-2.56,6.086c0,0.863,0.13,1.699,0.366,2.481c0.757,2.587,2.35,4.703,2.638,5.069
		c0.366,0.496,5.094,8.099,12.565,11.025c7.471,2.926,7.471,1.958,8.828,1.828c1.358-0.104,4.362-1.751,4.964-3.475
		c0.626-1.697,0.626-3.161,0.444-3.475C1927.851,8162.009,1927.382,8161.825,1926.651,8161.459L1926.651,8161.459z
		 M1942.898,8154.693c-0.417-16.093-13.688-29.052-30.014-29.052c-16.118,0-29.282,12.646-29.987,28.503
		c0,0.417-0.027,0.862-0.027,1.307c0,5.616,1.567,10.896,4.311,15.388l-5.406,15.963l16.612-5.277
		c4.311,2.376,9.248,3.709,14.498,3.709c16.587,0,30.014-13.324,30.014-29.782
		C1942.898,8155.189,1942.898,8154.929,1942.898,8154.693L1942.898,8154.693z"/>
</g>
<rect x="827.878" y="8220.222" fill="#3F3F3F" width="1920" height="78"/>
<g>
	<text transform="matrix(1 0 0 1 1464.9229 8268.2217)" fill="#FFFFFF" font-family="'Verdana'" font-size="26">Copyright © Numérique. Designed by Numérique</text>
</g>
<g>
	<path fill="#FFFFFF" d="M0.534,0.284c-0.599,0.46-0.709,1.319-0.249,1.919l26.706,34.719L0.285,71.642
		c-0.462,0.6-0.35,1.458,0.249,1.917c0.599,0.461,1.457,0.35,1.918-0.25l27.33-35.528l0,0l0.019-0.024
		c0.055-0.07,0.098-0.146,0.136-0.222c0.011-0.021,0.019-0.043,0.027-0.064c0.031-0.067,0.055-0.134,0.072-0.204
		c0.007-0.023-0.089-0.047-0.085-0.071c0.019-0.091-0.072-0.294-0.072-0.386v-0.587h0.248c0,0-0.034,0.167-0.052,0.078
		c-0.005-0.023-0.021,0.128-0.029,0.103c-0.018-0.068-0.046-0.05-0.075-0.115c-0.011-0.022-0.021,0-0.03-0.021
		c-0.039-0.076-0.036-0.13-0.089-0.199l0.028-0.007v0.002L2.499,0.533C2.04-0.064,1.132-0.177,0.534,0.284z"/>
</g>
</svg>
