<svg width="32" height="32" xmlns="http://www.w3.org/2000/svg">

 <g>
  <title>background</title>
  <rect fill="none" id="canvas_background" height="402" width="582" y="-1" x="-1"/>
 </g>
 <g>
  <title>Layer 1</title>
  <path transform="rotate(89.81735229492188 16.369388580322266,15.492090225219727) " stroke="null" id="svg_1" d="m4.408966,9.49209l23.920846,0c1.100359,0 1.993404,-0.896 1.993404,-2s-0.893045,-2 -1.993404,-2l-23.920846,0c-1.100359,0 -1.993404,0.896 -1.993404,2s0.893045,2 1.993404,2zm23.920846,4l-23.920846,0c-1.100359,0 -1.993404,0.896 -1.993404,2s0.893045,2 1.993404,2l23.920846,0c1.100359,0 1.993404,-0.896 1.993404,-2s-0.893045,-2 -1.993404,-2zm0,8l-23.920846,0c-1.100359,0 -1.993404,0.896 -1.993404,2s0.893045,2 1.993404,2l23.920846,0c1.100359,0 1.993404,-0.896 1.993404,-2s-0.893045,-2 -1.993404,-2z"/>
 </g>
</svg>